<svg width="256" height="256" viewBox="0 0 256 256" fill="none" xmlns="http://www.w3.org/2000/svg">
<path d="M127.587 255.792C197.937 255.792 254.966 198.763 254.966 128.414C254.966 58.0644 197.937 1.03516 127.587 1.03516C57.2382 1.03516 0.208984 58.0644 0.208984 128.414C0.208984 198.763 57.2382 255.792 127.587 255.792Z" fill="white"/>
<path d="M0 128.207C0 57.372 57.3721 0 128 0C198.835 0 256 57.372 256 128C256 198.835 198.627 255.999 128 255.999C57.3721 256.207 0 198.834 0 128.207ZM199.663 152.647C183.301 152.647 173.566 142.291 173.566 125.929C173.566 107.702 184.958 98.7959 199.456 98.7959C206.084 98.7959 211.262 100.246 214.99 101.903L218.925 87.4043C215.611 85.7474 208.362 83.6762 198.835 83.6762C176.259 83.6762 157.618 96.5176 154.718 119.922H125.1V134.42H137.734V151.611C136.285 152.233 132.971 152.647 128.828 152.647C113.709 152.647 102.938 142.912 102.938 125.721C102.938 107.909 114.744 99.2101 130.071 99.2101C138.977 99.2101 144.569 100.66 148.919 102.731L152.854 87.8186C148.919 85.9545 140.634 83.8833 130.071 83.8833C103.145 83.8833 83.4691 99.4173 83.262 126.55C83.262 135.87 85.7474 144.362 90.304 150.99H64.207V84.7118H45.7734V166.524H96.7247V158.032C104.181 164.246 114.537 167.559 128.207 167.559C138.977 167.559 149.747 164.867 155.547 163.003V139.184C159.896 156.375 173.773 168.181 196.971 168.181C206.705 168.181 214.576 166.317 217.89 164.66L215.197 150.161C211.262 151.611 205.255 152.647 199.663 152.647Z" fill="#00788A"/>
</svg>