<svg width="256" height="256" viewBox="0 0 256 256" fill="none" xmlns="http://www.w3.org/2000/svg">
<g clip-path="url(#clip0_360_42396)">
<path d="M128 0C102.684 0 77.9366 7.50707 56.8871 21.5719C35.8376 35.6367 19.4315 55.6276 9.74348 79.0165C0.0554606 102.405 -2.47937 128.142 2.45954 152.972C7.39845 177.801 19.5893 200.609 37.4904 218.51C55.3915 236.411 78.1989 248.602 103.029 253.54C127.858 258.479 153.595 255.945 176.984 246.257C200.372 236.569 220.363 220.162 234.428 199.113C248.493 178.063 256 153.316 256 128C256 94.0523 242.514 61.495 218.51 37.4903C194.505 13.4857 161.948 0 128 0" fill="black"/>
<path d="M251.866 127.999C251.866 160.851 238.816 192.356 215.586 215.586C192.357 238.815 160.851 251.866 127.999 251.866C95.148 251.866 63.642 238.815 40.4125 215.586C17.183 192.356 4.13281 160.851 4.13281 127.999H52.1328C52.1173 143.504 56.8647 158.64 65.7328 171.359L129.333 107.679L71.2528 96.3457H175.413L104.533 145.812L140.186 156.479L130.453 135.999L145.679 125.332L154.453 171.866L104.426 145.866L66.3995 172.532C75.7995 185.567 89.0922 195.285 104.365 200.286C119.638 205.287 136.104 205.314 151.393 200.364C166.683 195.414 180.008 185.741 189.451 172.738C198.895 159.734 203.97 144.07 203.946 127.999H251.866Z" fill="#F2A900"/>
<path d="M184.984 89.5202H147.49L166.157 70.8535C173.578 75.7937 179.964 82.1344 184.957 89.5202" fill="#F2A900"/>
<path d="M15.0975 101.312L13.7793 107.711L45.748 114.296L47.0662 107.897L15.0975 101.312Z" fill="white"/>
<path d="M33.3583 59.8145L61.7316 75.9211L58.2383 82.0278L32.985 81.4944L52.3183 92.4811L49.305 97.7878L20.9316 81.6811L24.3983 75.5744L49.6783 76.1078L30.345 65.1211L33.3583 59.8145Z" fill="white"/>
<path d="M48.2402 43.3067L64.9336 30L68.7736 34.8L57.1736 44.0533L61.5202 49.4933L70.9069 42.0267L74.7736 46.8267L65.3602 54.32L73.6802 64.7467L68.5869 68.8L48.2402 43.3067Z" fill="white"/>
<path d="M97.5197 15.7869C98.3145 15.4948 99.1614 15.3712 100.007 15.424C100.852 15.4768 101.677 15.7048 102.429 16.0935C103.181 16.4822 103.845 17.0231 104.377 17.6819C104.909 18.3407 105.298 19.1029 105.52 19.9202L111.733 39.0669C112.021 39.8637 112.14 40.7115 112.083 41.5568C112.027 42.402 111.796 43.2264 111.405 43.978C111.014 44.7296 110.472 45.3921 109.813 45.9237C109.153 46.4554 108.39 46.8446 107.573 47.0669L97.2797 50.6669C96.4828 50.9544 95.635 51.0737 94.7898 51.0173C93.9445 50.9609 93.1201 50.73 92.3685 50.3391C91.6169 49.9483 90.9544 49.406 90.4228 48.7464C89.8912 48.0869 89.5019 47.3243 89.2797 46.5069L83.093 27.3869C82.8051 26.5918 82.6847 25.7457 82.7394 24.9019C82.7941 24.058 83.0227 23.2346 83.4109 22.4833C83.799 21.732 84.3384 21.0692 84.995 20.5363C85.6516 20.0034 86.4112 19.6121 87.2263 19.3869L97.5197 15.7869ZM99.7863 23.1469C99.7491 22.9415 99.6651 22.7474 99.5408 22.5798C99.4166 22.4121 99.2554 22.2752 99.0698 22.1798C98.8841 22.0844 98.679 22.033 98.4703 22.0296C98.2616 22.0262 98.055 22.0709 97.8663 22.1602L90.6663 24.5069C90.4601 24.5478 90.2659 24.635 90.0983 24.7621C89.9308 24.8891 89.7944 25.0526 89.6993 25.2401C89.6043 25.4276 89.5531 25.6343 89.5497 25.8445C89.5463 26.0548 89.5907 26.263 89.6797 26.4535L95.013 43.1735C95.0539 43.3797 95.1412 43.574 95.2682 43.7415C95.3952 43.909 95.5587 44.0455 95.7462 44.1405C95.9338 44.2356 96.1405 44.2867 96.3507 44.2901C96.5609 44.2936 96.7692 44.2491 96.9597 44.1602L104.24 41.8135C104.446 41.7726 104.64 41.6853 104.808 41.5583C104.975 41.4313 105.112 41.2678 105.207 41.0803C105.302 40.8927 105.353 40.686 105.356 40.4758C105.36 40.2656 105.315 40.0574 105.226 39.8669L99.7863 23.1469Z" fill="white"/>
<path d="M139.759 45.3335L135.386 32.8802L130.053 32.5069L129.199 44.5869L122.666 44.0802L124.986 11.5469L141.573 12.7202C142.429 12.7399 143.272 12.9388 144.047 13.3041C144.822 13.6694 145.512 14.193 146.072 14.8412C146.632 15.4894 147.051 16.2477 147.3 17.0674C147.549 17.8871 147.624 18.7499 147.519 19.6002L146.986 27.2535C146.957 28.6337 146.458 29.9627 145.57 31.02C144.683 32.0774 143.46 32.7996 142.106 33.0669L146.666 45.7869L139.759 45.3335ZM141.039 20.4269C141.107 20.2117 141.12 19.9831 141.077 19.7616C141.034 19.5401 140.937 19.3328 140.794 19.1582C140.652 18.9836 140.468 18.8473 140.259 18.7615C140.05 18.6758 139.824 18.6432 139.599 18.6669L131.173 18.0535L130.666 26.4269L139.119 27.0402C139.326 27.076 139.539 27.0652 139.741 27.0087C139.943 26.9521 140.13 26.8512 140.288 26.7133C140.447 26.5754 140.572 26.4039 140.656 26.2114C140.74 26.0189 140.78 25.8101 140.773 25.6002L141.039 20.4269Z" fill="white"/>
<path d="M181.814 62.4802L176.4 59.4935L186.88 40.4268L172.72 51.5202L168.587 49.2535L170.374 31.3602L159.894 50.4268L154.48 47.4402L170.214 18.8535L176.48 22.2935L174.667 43.1202L191.254 30.4268L197.52 33.8668L181.814 62.4802Z" fill="white"/>
<path d="M227.225 66.9085L222.318 70.6419L213.358 58.8552L207.998 62.9085L215.278 72.4819L210.372 76.1885L203.092 66.6419L197.172 71.1485L206.158 82.9352L201.252 86.6685L188.318 69.6819L214.318 49.9219L227.225 66.9085Z" fill="white"/>
<path d="M241.095 101.681C241.379 102.495 241.488 103.361 241.415 104.221C241.342 105.081 241.088 105.915 240.671 106.67C240.253 107.426 239.68 108.084 238.991 108.603C238.301 109.121 237.51 109.489 236.668 109.681L217.682 115.014C216.867 115.294 216.002 115.4 215.144 115.325C214.285 115.249 213.452 114.995 212.698 114.578C211.944 114.161 211.286 113.59 210.767 112.903C210.247 112.215 209.877 111.426 209.682 110.587L205.068 94.2673L236.428 85.334L241.095 101.681ZM215.202 107.361C215.234 107.567 215.313 107.763 215.433 107.935C215.552 108.107 215.709 108.249 215.891 108.352C216.073 108.454 216.276 108.514 216.484 108.527C216.693 108.54 216.902 108.506 217.095 108.427L233.655 103.707C233.862 103.671 234.059 103.589 234.23 103.467C234.402 103.345 234.544 103.186 234.646 103.002C234.748 102.818 234.808 102.613 234.821 102.403C234.834 102.193 234.8 101.983 234.722 101.787L232.295 93.334L212.775 98.8807L215.202 107.361Z" fill="white"/>
<path d="M42.5068 163.066L31.1469 164.506L41.0135 158.426L40.1335 155.706L28.5869 156.506L38.6402 151.066L37.4669 147.359L22.8535 156.426L23.9202 159.759L34.3735 159.066L25.4669 164.586L26.5068 167.786L43.6535 166.613L42.5068 163.066Z" fill="black"/>
<path d="M43.6517 173.254L47.225 179.734L50.2384 178.08L44.9317 168.4L30.3184 176.427L35.625 186.107L38.6384 184.454L35.065 177.947L38.025 176.347L40.905 181.6L43.9184 179.947L41.0384 174.694L43.6517 173.254Z" fill="black"/>
<path d="M62.2398 198.002L64.7465 195.682L56.6131 186.909L56.4798 186.775L53.9998 189.095L56.9065 192.215L47.2798 201.122L47.1465 201.255L49.6265 203.895L59.3598 194.882L62.2398 198.002Z" fill="black"/>
<path d="M67.7327 202.638L73.546 207.252L75.6793 204.532L67.0127 197.705L56.666 210.772L65.3327 217.625L67.466 214.905L61.6527 210.318L63.7327 207.705L68.4527 211.412L70.586 208.718L65.866 204.985L67.7327 202.638Z" fill="black"/>
<path d="M85.335 210.107L81.1483 207.76C80.7608 207.524 80.3286 207.371 79.8789 207.311C79.4292 207.25 78.9718 207.284 78.5357 207.409C78.0997 207.534 77.6943 207.749 77.3453 208.039C76.9963 208.329 76.7113 208.688 76.5083 209.094L75.175 211.494C74.7907 212.298 74.7114 213.214 74.9517 214.072C75.192 214.931 75.7356 215.673 76.4816 216.16L79.7083 219.014C80.0816 219.334 80.135 219.52 79.975 219.84L79.1216 221.334C79.0489 221.479 78.9257 221.593 78.775 221.654C78.6289 221.709 78.4677 221.709 78.3216 221.654L75.2283 219.947C75.1588 219.912 75.0971 219.863 75.0467 219.803C74.9964 219.744 74.9584 219.675 74.935 219.6C74.8976 219.531 74.8781 219.453 74.8781 219.374C74.8781 219.294 74.8976 219.217 74.935 219.147L75.735 217.707L72.7216 216L71.6283 217.974C71.3876 218.356 71.23 218.785 71.1656 219.233C71.1013 219.68 71.1317 220.136 71.2549 220.571C71.3781 221.006 71.5913 221.41 71.8808 221.757C72.1702 222.105 72.5293 222.387 72.935 222.587L77.3616 225.067C77.8969 225.376 78.5033 225.542 79.1216 225.547C79.3957 225.587 79.6742 225.587 79.9483 225.547C80.3831 225.421 80.7874 225.206 81.136 224.917C81.4846 224.628 81.7702 224.271 81.975 223.867L83.415 221.2C83.7961 220.398 83.8765 219.486 83.6415 218.629C83.4066 217.773 82.872 217.029 82.135 216.534L78.8816 213.68C78.5083 213.334 78.455 213.174 78.615 212.854L79.3883 211.52C79.4112 211.445 79.4524 211.376 79.5082 211.32C79.564 211.264 79.6328 211.223 79.7083 211.2C79.7833 211.165 79.8653 211.146 79.9483 211.146C80.0313 211.146 80.1133 211.165 80.1883 211.2L83.015 212.8C83.0895 212.83 83.1564 212.876 83.2106 212.935C83.2649 212.995 83.305 213.065 83.3281 213.142C83.3511 213.219 83.3566 213.3 83.3439 213.38C83.3312 213.459 83.3008 213.534 83.255 213.6L82.535 214.854L85.6283 216.587L86.6416 214.774C86.8873 214.388 87.049 213.955 87.116 213.502C87.183 213.05 87.1539 212.589 87.0306 212.148C86.9073 211.708 86.6926 211.299 86.4004 210.947C86.1082 210.595 85.7452 210.309 85.335 210.107" fill="black"/>
<path d="M89.6537 216.24L93.6538 217.706L89.0938 230.186L92.5071 231.44L97.0671 218.96L101.067 220.426L102.24 217.226L90.8271 213.066L89.6537 216.24Z" fill="black"/>
<path d="M115.437 225.228L111.997 224.748C111.725 224.71 111.449 224.781 111.229 224.946C111.009 225.111 110.863 225.356 110.824 225.628L110.344 228.935C110.319 229.07 110.324 229.208 110.356 229.341C110.388 229.474 110.447 229.599 110.53 229.708C110.61 229.824 110.713 229.921 110.832 229.994C110.952 230.068 111.085 230.116 111.224 230.135L114.53 230.615H114.69C114.938 230.617 115.177 230.529 115.364 230.367C115.55 230.205 115.671 229.98 115.704 229.735L116.21 226.402C116.248 226.13 116.177 225.853 116.012 225.633C115.848 225.414 115.602 225.268 115.33 225.228" fill="black"/>
<path d="M133.814 227.201L130.454 220.694L126.48 220.907L132.24 231.494L132.56 237.281L136.187 237.067L135.867 231.281L140.24 220.374L140.347 220.107L136.374 220.347L133.814 227.201Z" fill="black"/>
<path d="M154.935 220.32C154.868 219.864 154.706 219.427 154.458 219.039C154.209 218.65 153.882 218.319 153.496 218.067C153.11 217.815 152.675 217.648 152.22 217.576C151.765 217.505 151.3 217.531 150.855 217.653L145.522 218.853C145.069 218.92 144.635 219.082 144.249 219.329C143.863 219.575 143.533 219.9 143.282 220.283C143.03 220.666 142.862 221.097 142.788 221.549C142.715 222.001 142.738 222.464 142.855 222.906L145.068 232.72C145.151 233.162 145.321 233.582 145.569 233.958C145.816 234.333 146.135 234.656 146.508 234.906C147.038 235.23 147.648 235.396 148.268 235.386H149.122L154.455 234.186C154.908 234.119 155.342 233.957 155.728 233.711C156.114 233.464 156.444 233.139 156.695 232.756C156.947 232.374 157.115 231.942 157.189 231.49C157.262 231.038 157.239 230.576 157.122 230.133L154.935 220.32ZM153.015 230.986L149.335 232C149.19 232.058 149.027 232.058 148.882 232C148.754 231.901 148.669 231.759 148.642 231.6L146.668 222.853C146.668 222.453 146.668 222.213 147.122 222.133L150.855 221.306H151.042H151.308C151.431 221.409 151.515 221.55 151.548 221.706L153.468 230.293C153.505 230.366 153.522 230.447 153.518 230.528C153.514 230.61 153.49 230.689 153.447 230.758C153.405 230.827 153.345 230.885 153.274 230.925C153.203 230.965 153.123 230.986 153.042 230.986" fill="black"/>
<path d="M168.323 211.787V211.627L164.963 212.987L169.763 224.8C169.809 224.867 169.837 224.944 169.845 225.025C169.853 225.106 169.841 225.187 169.809 225.262C169.777 225.337 169.726 225.402 169.662 225.452C169.598 225.501 169.523 225.534 169.443 225.547L166.136 226.907C166.06 226.939 165.978 226.956 165.896 226.956C165.813 226.956 165.732 226.939 165.656 226.907C165.527 226.862 165.415 226.778 165.336 226.667L160.589 215.04V214.88L157.256 216.24L162.296 228.64C162.458 229.06 162.702 229.443 163.013 229.768C163.325 230.093 163.697 230.353 164.109 230.534C164.489 230.695 164.897 230.777 165.309 230.774C165.796 230.782 166.279 230.682 166.723 230.48L171.549 228.534C171.979 228.373 172.371 228.123 172.699 227.801C173.026 227.479 173.283 227.092 173.451 226.664C173.619 226.237 173.696 225.779 173.676 225.32C173.657 224.861 173.541 224.412 173.336 224L168.323 211.787Z" fill="black"/>
<path d="M189.63 201.708L187.604 198.961L178.004 206.108L177.844 206.214L179.87 208.961L183.284 206.401L191.124 216.908L191.23 217.068L194.137 214.908L186.217 204.241L189.63 201.708Z" fill="black"/>
<path d="M203.257 193.547L200.59 190.88C200.285 190.543 199.913 190.273 199.497 190.089C199.082 189.904 198.632 189.809 198.177 189.809C197.722 189.809 197.272 189.904 196.857 190.089C196.441 190.273 196.069 190.543 195.764 190.88L189.844 196.987L201.79 208.614L204.324 205.947L200.004 201.84L201.63 200.16L207.684 202.48L210.35 199.814L203.95 197.414C204.238 196.784 204.316 196.078 204.171 195.401C204.027 194.724 203.669 194.112 203.15 193.654L203.257 193.547ZM200.217 196.667L197.497 199.467L194.83 196.8L197.657 193.894C197.707 193.827 197.771 193.774 197.845 193.736C197.919 193.699 198.001 193.68 198.084 193.68C198.167 193.68 198.248 193.699 198.322 193.736C198.396 193.774 198.461 193.827 198.51 193.894L200.377 195.707C200.438 195.757 200.488 195.82 200.522 195.891C200.556 195.963 200.573 196.041 200.573 196.12C200.573 196.199 200.556 196.277 200.522 196.349C200.488 196.42 200.438 196.483 200.377 196.534" fill="black"/>
<path d="M217.893 184L207.067 176.48H206.907L204.827 179.467L215.307 186.72C215.437 186.809 215.531 186.942 215.573 187.094C215.629 187.24 215.629 187.401 215.573 187.547L213.333 190.24C213.3 190.312 213.25 190.375 213.187 190.424C213.125 190.473 213.052 190.507 212.974 190.523C212.896 190.538 212.816 190.535 212.739 190.514C212.662 190.493 212.592 190.454 212.533 190.4L202.213 183.227L200 186.107L210.987 193.734C211.572 194.151 212.268 194.383 212.987 194.4H213.52C213.963 194.312 214.384 194.136 214.759 193.885C215.134 193.633 215.456 193.31 215.707 192.934L218.667 188.614C218.943 188.233 219.14 187.801 219.245 187.343C219.351 186.885 219.363 186.41 219.28 185.947C219.09 185.057 218.565 184.274 217.813 183.76" fill="black"/>
<path d="M225.627 168.587L222.96 167.307C222.134 166.985 221.22 166.969 220.383 167.262C219.547 167.556 218.843 168.139 218.4 168.907L215.733 172.321C215.413 172.721 215.227 172.801 214.907 172.641L213.52 171.974C213.445 171.951 213.376 171.91 213.32 171.854C213.264 171.798 213.223 171.73 213.2 171.654C213.168 171.583 213.152 171.505 213.152 171.427C213.152 171.349 213.168 171.272 213.2 171.201L214.587 168.241C214.649 168.097 214.763 167.983 214.907 167.921C215.061 167.858 215.233 167.858 215.387 167.921L216.693 168.534L218.32 165.334L216.427 164.427C216.019 164.214 215.572 164.087 215.113 164.055C214.654 164.023 214.193 164.086 213.76 164.241C213.337 164.396 212.95 164.634 212.62 164.941C212.29 165.247 212.025 165.617 211.84 166.027L209.787 170.374C209.573 170.782 209.447 171.229 209.414 171.688C209.382 172.147 209.445 172.607 209.6 173.041C209.755 173.463 209.993 173.851 210.3 174.181C210.607 174.51 210.976 174.776 211.387 174.961L213.893 176.134C214.719 176.457 215.633 176.473 216.47 176.179C217.307 175.886 218.01 175.302 218.453 174.534L221.12 171.121C221.44 170.721 221.6 170.667 221.92 170.827L223.467 171.547C223.546 171.571 223.618 171.613 223.678 171.67C223.738 171.727 223.784 171.797 223.813 171.874C223.841 171.952 223.851 172.035 223.842 172.117C223.833 172.199 223.805 172.278 223.76 172.347L222.24 175.521C222.216 175.6 222.174 175.672 222.117 175.732C222.061 175.792 221.991 175.838 221.913 175.867C221.836 175.895 221.753 175.905 221.67 175.896C221.588 175.887 221.509 175.859 221.44 175.814L219.973 175.121L218.453 178.294L220.507 179.281C220.999 179.515 221.535 179.642 222.08 179.654C222.714 179.642 223.331 179.447 223.856 179.092C224.382 178.737 224.793 178.238 225.04 177.654L227.227 173.094C227.44 172.694 227.567 172.253 227.599 171.801C227.632 171.348 227.57 170.894 227.417 170.467C227.264 170.04 227.023 169.65 226.71 169.322C226.397 168.994 226.019 168.734 225.6 168.561" fill="black"/>
<path d="M219.947 153.839L221.147 149.759L217.867 148.799L214.507 160.292L214.48 160.452L217.734 161.412L218.934 157.332L231.494 161.012L231.68 161.065L232.694 157.572L219.947 153.839Z" fill="black"/>
</g>
<defs>
<clipPath id="clip0_360_42396">
<rect width="256" height="256" fill="white"/>
</clipPath>
</defs>
</svg>