<svg id="fl4" xmlns="http://www.w3.org/2000/svg" width="78.383" height="78.383" viewBox="0 0 78.383 78.383">
  <path id="Path_3160" data-name="Path 3160" d="M39.192,78.383A39.192,39.192,0,1,0,0,39.192,39.192,39.192,0,0,0,39.192,78.383Z" fill="#0f1822"/>
  <path id="Path_3161" data-name="Path 3161" d="M79.985,128a37.926,37.926,0,1,1-75.852,0h14.7a23.27,23.27,0,0,0,46.54,0Z" transform="translate(-2.867 -88.808)" fill="#13bb31"/>
  <path id="Path_3162" data-name="Path 3162" d="M13.787,103.285l.4-1.951,9.8,2.017-.408,1.96Z" transform="translate(-9.566 -70.307)" fill="#fff"/>
  <path id="Path_3163" data-name="Path 3163" d="M24.736,59.814l8.687,4.9-1.061,1.87-7.74-.163,5.92,3.364-.923,1.633-8.687-4.9,1.061-1.87,7.74.163-5.92-3.364Z" transform="translate(-14.523 -41.5)" fill="#fff"/>
  <path id="Path_3164" data-name="Path 3164" d="M48.24,34.057l5.111-4.082,1.176,1.47-3.552,2.833,1.331,1.633,2.882-2.286,1.143,1.51-2.882,2.294L56,40.622,54.47,41.863Z" transform="translate(-33.47 -20.797)" fill="#fff"/>
  <path id="Path_3165" data-name="Path 3165" d="M87.256,15.527a1.87,1.87,0,0,1,2.45,1.266l1.9,5.862A1.878,1.878,0,0,1,90.334,25.1l-3.152,1.1a1.878,1.878,0,0,1-2.449-1.274l-1.894-5.854A1.878,1.878,0,0,1,84.1,16.629Zm.694,2.254a.416.416,0,0,0-.588-.3l-2.2.719a.425.425,0,0,0-.3.6l1.633,5.119a.425.425,0,0,0,.6.3l2.229-.719a.424.424,0,0,0,.342-.41.421.421,0,0,0-.04-.186Z" transform="translate(-57.397 -10.693)" fill="#fff"/>
  <path id="Path_3166" data-name="Path 3166" d="M127.9,21.892l-1.339-3.813-1.633-.114-.261,3.7-2-.155.71-9.961,5.079.359a1.877,1.877,0,0,1,1.821,2.107l-.163,2.343a1.854,1.854,0,0,1-1.494,1.78l1.4,3.895Zm.392-7.626a.416.416,0,0,0-.441-.539l-2.58-.188-.155,2.564,2.588.188a.433.433,0,0,0,.506-.441Z" transform="translate(-85.108 -8.011)" fill="#fff"/>
  <path id="Path_3167" data-name="Path 3167" d="M162.978,32.211l-1.633-.914,3.209-5.838-4.336,3.4-1.265-.694.547-5.479-3.2,5.83-1.633-.906,4.817-8.753,1.919,1.053-.555,6.377,5.078-3.887,1.919,1.053Z" transform="translate(-107.31 -13.081)" fill="#fff"/>
  <path id="Path_3168" data-name="Path 3168" d="M200.325,55.121l-1.5,1.143-2.752-3.609L194.438,53.9l2.229,2.931-1.5,1.135-2.229-2.915-1.764,1.364,2.743,3.617-1.5,1.143-3.96-5.209,7.961-6.042Z" transform="translate(-130.752 -34.635)" fill="#fff"/>
  <path id="Path_3169" data-name="Path 3169" d="M216.1,90.339a1.878,1.878,0,0,1-1.355,2.449l-5.813,1.633a1.886,1.886,0,0,1-2.449-1.355l-1.413-5,9.6-2.735Zm-7.928,1.739a.425.425,0,0,0,.393.357.425.425,0,0,0,.187-.031l5.07-1.445a.432.432,0,0,0,.357-.4.437.437,0,0,0-.03-.189l-.743-2.588-5.977,1.7Z" transform="translate(-142.279 -59.206)" fill="#fff"/>
  <path id="Path_3170" data-name="Path 3170" d="M28.871,152.168l-3.47.441,3.013-1.862-.269-.833-3.535.245,3.078-1.666-.359-1.135-4.474,2.776.327,1.021,3.2-.212-2.727,1.69.318.98,5.25-.359Z" transform="translate(-15.856 -102.24)" fill="#0f1822"/>
  <path id="Path_3171" data-name="Path 3171" d="M34.4,169.886,35.5,171.87l.923-.506L34.795,168.4l-4.474,2.458,1.625,2.964.923-.506-1.094-1.992.906-.49.882,1.608.923-.506-.882-1.617Z" transform="translate(-21.037 -116.839)" fill="#0f1822"/>
  <path id="Path_3172" data-name="Path 3172" d="M51.768,190.211l.768-.71-2.49-2.686L50,186.773l-.759.71.89.955-2.948,2.727-.041.041.759.808,2.98-2.76Z" transform="translate(-32.711 -129.586)" fill="#0f1822"/>
  <path id="Path_3173" data-name="Path 3173" d="M60.054,199.217l1.78,1.413.653-.833-2.654-2.09-3.168,4,2.654,2.1.653-.833-1.78-1.4.637-.8,1.445,1.135.653-.825-1.445-1.143Z" transform="translate(-39.316 -137.172)" fill="#0f1822"/>
  <path id="Path_3174" data-name="Path 3174" d="M75.479,208.147l-1.282-.719a1,1,0,0,0-1.421.408l-.408.735a1.127,1.127,0,0,0,.4,1.429l.988.874c.114.1.131.155.082.253l-.261.457a.2.2,0,0,1-.106.1.229.229,0,0,1-.139,0l-.947-.531a.176.176,0,0,1-.056-.044.178.178,0,0,1-.034-.062.147.147,0,0,1,0-.139l.245-.441-.923-.514-.335.6a.988.988,0,0,0,.4,1.412l1.355.759a1.093,1.093,0,0,0,.539.147.876.876,0,0,0,.253,0,1.013,1.013,0,0,0,.621-.514l.441-.817a1.135,1.135,0,0,0-.392-1.429l-1-.874c-.114-.106-.131-.155-.082-.253l.237-.408a.165.165,0,0,1,.1-.1.171.171,0,0,1,.147,0l.865.49a.158.158,0,0,1,.062.041.183.183,0,0,1,.036.2l-.22.384.947.531.31-.555a1,1,0,0,0-.425-1.429Z" transform="translate(-49.352 -143.815)" fill="#0f1822"/>
  <path id="Path_3175" data-name="Path 3175" d="M89.265,214.038l1.225.449-1.4,3.821,1.045.384,1.4-3.821,1.225.449.359-.98-3.494-1.274Z" transform="translate(-61.815 -147.828)" fill="#0f1822"/>
  <path id="Path_3176" data-name="Path 3176" d="M111.894,224.886l-1.053-.147a.318.318,0,0,0-.359.269l-.147,1.013a.294.294,0,0,0,0,.124.3.3,0,0,0,.053.112.311.311,0,0,0,.212.131l1.012.147h.049a.31.31,0,0,0,.31-.269l.155-1.021a.318.318,0,0,0-.237-.359Z" transform="translate(-76.549 -155.925)" fill="#0f1822"/>
  <path id="Path_3177" data-name="Path 3177" d="M128.724,222.287l-1.029-2-1.216.065,1.764,3.242.1,1.772,1.11-.066-.1-1.772,1.339-3.34.032-.082-1.216.074Z" transform="translate(-87.753 -152.714)" fill="#0f1822"/>
  <path id="Path_3178" data-name="Path 3178" d="M146.476,218.389a1,1,0,0,0-1.249-.817l-1.633.367a1,1,0,0,0-.817,1.241l.678,3a1.036,1.036,0,0,0,.441.669,1,1,0,0,0,.539.147h.261l1.633-.367a1,1,0,0,0,.817-1.241Zm-.588,3.266-1.127.31a.157.157,0,0,1-.139,0,.2.2,0,0,1-.074-.122l-.6-2.678c0-.122,0-.2.139-.22l1.143-.253h.139a.222.222,0,0,1,.073.122l.588,2.629a.149.149,0,0,1,.02.077.148.148,0,0,1-.081.129.148.148,0,0,1-.078.015Z" transform="translate(-99.038 -150.93)" fill="#0f1822"/>
  <path id="Path_3179" data-name="Path 3179" d="M160.641,211.676v-.049l-1.029.416,1.47,3.617a.147.147,0,0,1-.031.2.149.149,0,0,1-.067.029l-1.013.416a.187.187,0,0,1-.147,0,.2.2,0,0,1-.1-.074l-1.453-3.56v-.049l-1.021.416,1.543,3.8a1.047,1.047,0,0,0,.555.58.923.923,0,0,0,.367.074,1,1,0,0,0,.433-.09l1.478-.6a1,1,0,0,0,.547-1.388Z" transform="translate(-109.104 -146.83)" fill="#0f1822"/>
  <path id="Path_3180" data-name="Path 3180" d="M181.451,199.8l-.62-.841-2.939,2.188-.049.032.62.841,1.053-.784,2.393,3.217.032.049.89-.661-2.425-3.266Z" transform="translate(-123.39 -138.041)" fill="#0f1822"/>
  <path id="Path_3181" data-name="Path 3181" d="M193.949,190.954l-.817-.817a1,1,0,0,0-1.478,0l-1.813,1.87,3.658,3.56.776-.817-1.323-1.258.5-.506,1.854.7h.041l.817-.816-1.96-.735a.988.988,0,0,0-.253-1.184Zm-.9.923-.866.89-.817-.817.866-.89a.165.165,0,0,1,.058-.048.163.163,0,0,1,.2.048l.572.555a.165.165,0,0,1,.045.061.164.164,0,0,1-.009.146A.163.163,0,0,1,193.051,191.876Z" transform="translate(-131.715 -131.692)" fill="#0f1822"/>
  <path id="Path_3182" data-name="Path 3182" d="M205.479,178.783l-3.315-2.3h-.049l-.629.915,3.2,2.221a.2.2,0,0,1,.081.115.193.193,0,0,1,0,.139l-.686.825a.2.2,0,0,1-.114.09.182.182,0,0,1-.131,0l-3.16-2.2-.678.841,3.364,2.335a1.1,1.1,0,0,0,.612.2h.163a1.029,1.029,0,0,0,.67-.449l.906-1.323a1.071,1.071,0,0,0,.188-.817A1.085,1.085,0,0,0,205.479,178.783Z" transform="translate(-138.763 -122.445)" fill="#0f1822"/>
  <path id="Path_3183" data-name="Path 3183" d="M214.373,165.435l-.817-.392a1.143,1.143,0,0,0-1.4.49l-.817,1.045c-.1.122-.155.147-.253.1l-.425-.2a.169.169,0,0,1-.06-.038.167.167,0,0,1-.038-.06.171.171,0,0,1,0-.139l.425-.906a.187.187,0,0,1,.1-.1.194.194,0,0,1,.147,0l.4.188.5-.98-.58-.278a1.021,1.021,0,0,0-.817-.057,1.037,1.037,0,0,0-.588.547l-.629,1.331a1.019,1.019,0,0,0-.057.817,1.037,1.037,0,0,0,.547.588l.767.359a1.135,1.135,0,0,0,1.4-.49l.817-1.045c.1-.122.147-.139.245-.09l.474.22a.162.162,0,0,1,.065.038.162.162,0,0,1,.05.137.161.161,0,0,1-.025.07l-.465.972a.165.165,0,0,1-.1.106.165.165,0,0,1-.074.009.161.161,0,0,1-.07-.025l-.449-.212-.465.972.629.3a1.182,1.182,0,0,0,.482.114,1,1,0,0,0,.906-.612l.67-1.4a1,1,0,0,0-.49-1.38Z" transform="translate(-145.289 -113.817)" fill="#0f1822"/>
  <path id="Path_3184" data-name="Path 3184" d="M216.153,150.342l.367-1.249-1-.294-1.029,3.519-.008.049,1,.294.367-1.249,3.846,1.127.057.016.31-1.07Z" transform="translate(-148.809 -103.239)" fill="#0f1822"/>
  <path id="Path_3185" data-name="Path 3185" d="M77.547,95.282l23.58-26.348L77.2,107.407l-12.37-19.62Z" transform="translate(-44.977 -47.827)" fill="#13bb31"/>
</svg>
