<svg id="fl7" xmlns="http://www.w3.org/2000/svg" width="86.541" height="77.607" viewBox="0 0 86.541 77.607">
  <ellipse id="Ellipse_132" data-name="Ellipse 132" cx="38.804" cy="38.804" rx="38.804" ry="38.804" transform="translate(0 0)" fill="#fff"/>
  <path id="Path_3186" data-name="Path 3186" d="M103.8,136.656a.749.749,0,1,0-.938-.521C102.858,136.656,103.275,136.76,103.8,136.656Z" transform="translate(-71.347 -93.783)" fill="#fff"/>
  <path id="Path_3187" data-name="Path 3187" d="M105.172,147.265c-.73.208-1.042.521-.938.834s.625.417,1.459.208c.73-.208,1.042-.521.938-.834S106.006,147.056,105.172,147.265Z" transform="translate(-72.306 -102.099)" fill="#fff"/>
  <path id="Path_3188" data-name="Path 3188" d="M87.028,139.919c-.625.208-.834.834-.625,1.772.208.834.834,1.355,1.459,1.146s.834-.834.625-1.772C88.174,140.231,87.653,139.71,87.028,139.919Z" transform="translate(-59.893 -97.046)" fill="#fff"/>
  <path id="Path_3189" data-name="Path 3189" d="M137,126.008a1.18,1.18,0,0,0-.73,1.251l1.876-.521A.93.93,0,0,0,137,126.008Z" transform="translate(-94.55 -87.409)" fill="#fff"/>
  <path id="Path_3190" data-name="Path 3190" d="M62.18,146.726c-.625.208-.834.834-.625,1.772.208.834.834,1.355,1.459,1.147s.834-.834.625-1.772C63.327,147.038,62.805,146.517,62.18,146.726Z" transform="translate(-42.653 -101.769)" fill="#fff"/>
  <path id="Path_3191" data-name="Path 3191" d="M89.326,54.269A138.923,138.923,0,0,1,108.19,43.326a29.178,29.178,0,0,0-8.234-4.169c-1.459,3.127-4.377,5-7.191,4.273-2.4-.625-3.961-2.814-4.273-5.524A26.984,26.984,0,0,0,78.07,41.033C80.467,45.619,89.326,54.269,89.326,54.269Z" transform="translate(-54.166 -26.3)" fill="#fff"/>
  <path id="Path_3192" data-name="Path 3192" d="M53.278,75.6,37.332,58.2l2.71-5.315a28.575,28.575,0,0,0,.313,48.15A151.9,151.9,0,0,0,56.925,82.482s7.191,6.774,20.427,13.132A28.672,28.672,0,0,0,76.31,56.739,137.57,137.57,0,0,0,53.278,75.6Zm18.447-6.045a.7.7,0,1,1-.521.834A.644.644,0,0,1,71.725,69.558ZM34.1,86.963c-1.772.521-3.231-.521-3.752-2.5a3.43,3.43,0,0,1,.313-2.918A3.219,3.219,0,0,1,32.329,80.4a2.1,2.1,0,0,1,2.814,1.563l-1.042.313c-.313-.729-.834-1.042-1.459-.834-.938.209-1.355,1.251-.938,2.71.417,1.355,1.251,2.085,2.189,1.876.73-.208,1.042-.834.834-1.772l1.146-.313C36.081,85.5,35.56,86.546,34.1,86.963ZM39.312,85.5a2.55,2.55,0,1,1,1.563-3.126A2.381,2.381,0,0,1,39.312,85.5Zm3.127-1.042L40.667,78l1.146-.313,1.772,6.462ZM46.92,83.42a2.55,2.55,0,1,1,1.563-3.127A2.381,2.381,0,0,1,46.92,83.42Zm5.419.417c-1.355.417-2.4.1-2.606-.729a1.175,1.175,0,0,1,.626-1.355c-.417,0-.626-.208-.626-.417-.1-.313.1-.521.626-.938a1.325,1.325,0,0,1-1.147-1.042c-.313-.938.313-1.772,1.459-2.084a2.582,2.582,0,0,1,.938-.1l1.459-.417.209.834-.938.209a1.054,1.054,0,0,1,.417.729,1.3,1.3,0,0,1-.417,1.355c-.209.209-.209.313-1.251.626-.313.1-.417.209-.417.417s.1.209,1.042,0a4.455,4.455,0,0,1,1.563-.1,1.121,1.121,0,0,1,.834.938C54.424,82.69,53.8,83.524,52.34,83.837Zm5.628-3.543-.625-2.4a1.647,1.647,0,0,0-.313-.834.645.645,0,0,0-.73-.209.78.78,0,0,0-.625.73,2.937,2.937,0,0,0,.1.834L56.4,80.71l-1.146.313L54.424,78.1c-.313-1.146-.313-1.146-.625-1.563l1.146-.313a.8.8,0,0,1,.209.521A1.638,1.638,0,0,1,56.3,75.707a1.724,1.724,0,0,1,1.459.313,4.056,4.056,0,0,1,.626,1.355l.729,2.606Zm4.377-1.042a2.5,2.5,0,0,1-1.355-4.794c1.251-.313,2.293.417,2.71,1.876l.1.209-3.127.834a1.079,1.079,0,0,0,1.459.834c.417-.1.729-.313.729-.729l1.042-.209A1.983,1.983,0,0,1,62.345,79.251Zm5.732-1.667-1.772-6.358,1.251-.313,1.459,5.315,2.814-.73.313,1.042Zm4.794-1.355-1.251-4.586,1.146-.313,1.251,4.586Zm5.836-7.921,1.147-.313.313,1.355.938-.209.209.938-.938.209.417,1.772c.1.209.1.209.1.313.1.521.313.626.625.521l.625-.313.313.938a4.229,4.229,0,0,1-.938.521,1.3,1.3,0,0,1-1.251-.313,1.569,1.569,0,0,1-.417-.834l-.1-.417L79.229,70.6l-.729.209-.209-.938.73-.209Zm-.729,3.127-1.147.313c-.208-.417-.417-.521-.938-.417-.417.1-.625.417-.521.625q0,.156.313.313a6.1,6.1,0,0,0,1.042.1,2.148,2.148,0,0,1,1.355.313.877.877,0,0,1,.417.729c.208.938-.313,1.668-1.459,1.98-1.355.313-2.189,0-2.5-1.147l1.146-.313c.209.521.521.73,1.042.521a.761.761,0,0,0,.625-.729c0-.209-.1-.209-.417-.313H75.894a2.245,2.245,0,0,1-1.042-.208,1.329,1.329,0,0,1-.521-.73c-.209-.834.313-1.667,1.459-1.98A1.519,1.519,0,0,1,77.978,71.434Z" transform="translate(-18.743 -36.691)" fill="#fff"/>
  <path id="Path_3193" data-name="Path 3193" d="M88.749,196.209,82.5,194.75a27.76,27.76,0,0,0,11.777,2.5,28.7,28.7,0,0,0,19.073-7.3l-5.941,3.022s-10.11-6.462-11.673-8.025Z" transform="translate(-57.237 -128.323)" fill="#fff"/>
  <path id="Path_3194" data-name="Path 3194" d="M67.988,20.619a33.674,33.674,0,0,0-11.36-6.253c0-3.127-1.772-5.836-4.377-6.462-3.127-.834-6.358,1.459-7.608,5.107A32.614,32.614,0,1,0,79.661,45.528a32.223,32.223,0,0,0-8.65-22.1c7.712-4.482,16.467-8.338,25.534-9.588C96.545,13.844,85.81,12.906,67.988,20.619Zm.625,43.773C55.377,58.034,48.186,51.26,48.186,51.26A151.871,151.871,0,0,1,31.615,69.811,28.67,28.67,0,0,1,31.3,21.557l-2.71,5.315,15.946,17.4A131.17,131.17,0,0,1,67.571,25.621a28.539,28.539,0,0,1,1.042,38.77ZM66.112,67a28.386,28.386,0,0,1-19.073,7.3,29.81,29.81,0,0,1-11.777-2.5l6.253,1.459L48.5,61.995c1.563,1.563,11.673,8.025,11.673,8.025ZM44.225,16.971A6.243,6.243,0,0,0,48.5,22.495c2.814.73,5.836-1.146,7.191-4.273a30.634,30.634,0,0,1,8.234,4.169A138.923,138.923,0,0,0,45.059,33.334S36.3,24.683,33.7,20.1A30.083,30.083,0,0,1,44.225,16.971Z" transform="translate(-10.003 -5.365)" fill="#0f4c70"/>
  <path id="Path_3195" data-name="Path 3195" d="M41.541,145.631c.208,1.042-.1,1.563-.834,1.772-.938.313-1.772-.417-2.189-1.876-.417-1.355,0-2.4.938-2.71.625-.208,1.146.1,1.459.834l1.042-.313c-.521-1.355-1.459-1.98-2.814-1.563a3.217,3.217,0,0,0-1.668,1.146,3.481,3.481,0,0,0-.313,2.918c.521,1.98,1.98,3.022,3.752,2.5q2.189-.626,1.563-3.127Z" transform="translate(-25.663 -98.277)" fill="#0f4c70"/>
  <path id="Path_3196" data-name="Path 3196" d="M58.943,143.524a2.335,2.335,0,0,0-1.563,3.022,2.381,2.381,0,0,0,2.918,1.876,2.264,2.264,0,0,0,1.563-3.022A2.312,2.312,0,0,0,58.943,143.524Zm1.042,3.856c-.625.209-1.251-.313-1.459-1.146s0-1.563.625-1.772,1.251.313,1.459,1.146A1.273,1.273,0,0,1,59.985,147.38Z" transform="translate(-39.729 -99.504)" fill="#0f4c70"/>
  <path id="Path_3197" data-name="Path 3197" d="M73.1,134.037l-1.207.328L73.64,140.8l1.207-.329Z" transform="translate(-49.877 -92.997)" fill="#0f4c70"/>
  <path id="Path_3198" data-name="Path 3198" d="M83.79,136.715a2.335,2.335,0,0,0-1.563,3.022,2.381,2.381,0,0,0,2.918,1.876,2.552,2.552,0,0,0-1.355-4.9Zm1.042,3.856c-.625.208-1.251-.313-1.459-1.146s0-1.563.625-1.772,1.251.313,1.459,1.147C85.771,139.737,85.458,140.363,84.833,140.571Z" transform="translate(-56.969 -94.78)" fill="#0f4c70"/>
  <path id="Path_3199" data-name="Path 3199" d="M103.737,134.9a2.814,2.814,0,0,0-1.563.1c-.938.208-1.042.208-1.042,0,0-.1.1-.313.417-.417.938-.417,1.042-.417,1.25-.625a1.3,1.3,0,0,0,.417-1.355,1.677,1.677,0,0,0-.417-.73l.938-.209-.208-.834-1.459.417a2.591,2.591,0,0,0-.938.1c-1.146.313-1.772,1.146-1.459,2.085a1.327,1.327,0,0,0,1.146,1.042c-.521.417-.73.625-.625.938.1.209.208.313.625.417a1.174,1.174,0,0,0-.625,1.355c.208.834,1.25,1.146,2.605.729q2.189-.625,1.876-2.189A1.48,1.48,0,0,0,103.737,134.9Zm-3.231-1.667a.812.812,0,0,1,1.563-.417q.156.626-.626.938C101.027,133.75,100.61,133.646,100.506,133.229Zm1.98,3.856c-.834.209-1.355.1-1.459-.208-.1-.417.209-.73.938-.834.834-.208,1.355-.1,1.459.209S103.216,136.877,102.486,137.085Z" transform="translate(-69.098 -90.773)" fill="#0f4c70"/>
  <path id="Path_3200" data-name="Path 3200" d="M118.45,127.653a1.723,1.723,0,0,0-1.459-.313,1.64,1.64,0,0,0-1.147,1.042c-.1-.208-.1-.417-.208-.521l-1.147.313a6.472,6.472,0,0,1,.626,1.563l.834,2.918,1.146-.313-.625-2.293a2.93,2.93,0,0,1-.1-.834.894.894,0,0,1,.626-.729.644.644,0,0,1,.729.208,2.282,2.282,0,0,1,.313.834l.626,2.4,1.146-.313-.73-2.605A2.324,2.324,0,0,0,118.45,127.653Z" transform="translate(-79.435 -88.323)" fill="#0f4c70"/>
  <path id="Path_3201" data-name="Path 3201" d="M135.295,127.174c-.625.209-1.146-.1-1.459-.834l3.126-.834-.1-.208c-.417-1.563-1.459-2.293-2.71-1.876a2.229,2.229,0,0,0-1.563,3.023,2.316,2.316,0,0,0,2.918,1.772,1.983,1.983,0,0,0,1.563-1.98l-1.042.209A1.246,1.246,0,0,1,135.295,127.174Zm-.938-3.022a.944.944,0,0,1,1.146.625l-1.876.626A1.18,1.18,0,0,1,134.357,124.152Z" transform="translate(-91.901 -85.552)" fill="#0f4c70"/>
  <path id="Path_3202" data-name="Path 3202" d="M158.046,116.745l-1.459-5.315-1.251.313,1.772,6.462,3.96-1.146-.208-1.042Z" transform="translate(-107.775 -77.312)" fill="#0f4c70"/>
  <path id="Path_3203" data-name="Path 3203" d="M173.986,113.172l-1.207.328,1.232,4.525,1.207-.329Z" transform="translate(-119.877 -78.52)" fill="#0f4c70"/>
  <path id="Path_3204" data-name="Path 3204" d="M172.11,108.64a.7.7,0,1,0-.313-1.355.745.745,0,0,0-.521.938A.659.659,0,0,0,172.11,108.64Z" transform="translate(-118.816 -74.417)" fill="#0f4c70"/>
  <path id="Path_3205" data-name="Path 3205" d="M182.567,109.833c-1.146.313-1.667,1.042-1.459,1.98a1.333,1.333,0,0,0,.521.73,2.245,2.245,0,0,0,1.042.208h1.042c.313,0,.417.1.417.313.1.313-.1.521-.626.729-.521.1-.938,0-1.042-.521l-1.146.313c.313,1.042,1.146,1.459,2.5,1.146,1.146-.313,1.667-1.042,1.459-1.98a1.676,1.676,0,0,0-.417-.729c-.208-.209-.625-.209-1.355-.313-.729,0-.834,0-1.042-.1q-.156,0-.313-.313c-.1-.313.1-.521.521-.625a.731.731,0,0,1,.938.417l1.146-.313C184.547,109.937,183.713,109.52,182.567,109.833Z" transform="translate(-125.624 -76.131)" fill="#0f4c70"/>
  <path id="Path_3206" data-name="Path 3206" d="M194.456,104.816l.729-.208.417,1.772.1.417c.1.521.209.729.417.834a1.3,1.3,0,0,0,1.251.313,2.129,2.129,0,0,0,.938-.521l-.313-.938a.9.9,0,0,1-.625.313c-.313.1-.521,0-.626-.521,0-.1,0-.1-.1-.313l-.417-1.772.938-.209-.209-.938-.938.208-.313-1.355-1.146.313.313,1.355-.729.208Z" transform="translate(-134.699 -70.698)" fill="#0f4c70"/>
</svg>
