<svg id="fl8" xmlns="http://www.w3.org/2000/svg" width="77.139" height="78.383" viewBox="0 0 77.139 78.383">
  <path id="Path_3207" data-name="Path 3207" d="M42.081,79.864c20.666,0,37.418-17.023,37.418-38.022S62.746,3.82,42.081,3.82,4.662,20.843,4.662,41.842,21.415,79.864,42.081,79.864Z" transform="translate(-3.512 -2.651)" fill="#005596"/>
  <path id="Path_3208" data-name="Path 3208" d="M39.474,1.17A37.125,37.125,0,0,1,65.937,12.308a38.463,38.463,0,0,1,0,53.78,37.005,37.005,0,0,1-52.926,0,38.463,38.463,0,0,1,0-53.78A37.126,37.126,0,0,1,39.474,1.17Zm0-1.17A38.135,38.135,0,0,0,18.046,6.6,39.063,39.063,0,0,0,3.84,24.194,39.655,39.655,0,0,0,12.2,66.9a38.125,38.125,0,0,0,42.033,8.5A38.71,38.71,0,0,0,71.543,60.965a39.631,39.631,0,0,0-4.811-49.472A38.311,38.311,0,0,0,39.474,0Z" transform="translate(-0.904)" fill="#fff"/>
  <path id="Path_3209" data-name="Path 3209" d="M44.2,107.625V75.791h5.248l5.867,15.42V75.791H60.75v31.62H56.1l-5.855-16.59v16.8Z" transform="translate(-30.944 -52.585)" fill="#fff"/>
  <path id="Path_3210" data-name="Path 3210" d="M113.143,107.515c-5.508,0-8.541-3.773-8.293-9.861h5.731c0,3.031.1,5.132,2.674,5.132,1.238,0,1.906-1.258,1.906-3.446,0-5.71-9.729-6.352-9.729-15.785,0-4.956,2.277-8.465,7.984-8.465,4.716,0,7.278,2.151,7.427,9.672h-5.174c0-3.107-.582-5.031-2.327-5.031-1.522,0-2.612,1.258-2.265,3.383.9,5.71,10.014,6.968,10.187,15.747C121.412,106.4,115.668,107.515,113.143,107.515Z" transform="translate(-73.014 -52.098)" fill="#fff"/>
  <path id="Path_3211" data-name="Path 3211" d="M166.166,107.411V75.791h13.281v4.868H172.5v8.113h4.951V94.23H172.5v13.181Z" transform="translate(-115.565 -52.585)" fill="#fff"/>
  <path id="Path_3212" data-name="Path 3212" d="M198.467,167.556a2.154,2.154,0,0,1,1.18.412,2.209,2.209,0,0,1,.765,1,2.25,2.25,0,0,1,.1,1.265,2.224,2.224,0,0,1-.6,1.111,2.168,2.168,0,0,1-1.1.593,2.146,2.146,0,0,1-1.243-.12,2.185,2.185,0,0,1-.974-.793,2.235,2.235,0,0,1-.386-1.206,2.267,2.267,0,0,1,.166-.879,2.24,2.24,0,0,1,.492-.743,2.2,2.2,0,0,1,.739-.488A2.172,2.172,0,0,1,198.467,167.556Zm0,4.113a1.837,1.837,0,0,0,1.035-.321,1.883,1.883,0,0,0,.683-.853,1.915,1.915,0,0,0,.1-1.1,1.9,1.9,0,0,0-.519-.965,1.841,1.841,0,0,0-2.861.327,1.911,1.911,0,0,0-.295,1.058,1.875,1.875,0,0,0,.142.716,1.855,1.855,0,0,0,.4.6,1.818,1.818,0,0,0,.6.4A1.792,1.792,0,0,0,198.467,171.669Zm-.879-3.195H198.6c.619,0,.916.239.916.742a.7.7,0,0,1-.046.274.68.68,0,0,1-.15.232.67.67,0,0,1-.228.152.66.66,0,0,1-.269.046l.743,1.145h-.433l-.718-1.119h-.371v1.132h-.408Zm.408,1.145h.421c.359,0,.693,0,.693-.427s-.3-.4-.569-.4h-.5Z" transform="translate(-136.404 -116.252)" fill="#fff"/>
</svg>
