<svg xmlns="http://www.w3.org/2000/svg" xmlns:xlink="http://www.w3.org/1999/xlink" width="79" height="78" viewBox="0 0 79 78">
  <defs>
    <clipPath id="clip-path">
      <rect id="Rectangle_448" data-name="Rectangle 448" width="79" height="78" transform="translate(-0.375 -0.02)" fill="#fff"/>
    </clipPath>
  </defs>
  <g id="Group_76264" data-name="Group 76264" transform="translate(-1433 -8175)">
    <g id="fl3" transform="translate(1433.375 8175.02)" clip-path="url(#clip-path)">
      <path id="Path_3134" data-name="Path 3134" d="M39.192,0A39.191,39.191,0,1,0,66.9,11.479,39.191,39.191,0,0,0,39.192,0" transform="translate(-0.31 0)"/>
      <path id="Path_3135" data-name="Path 3135" d="M79.985,106.037a37.926,37.926,0,1,1-75.852,0h14.7a23.172,23.172,0,0,0,4.164,13.276l19.473-19.5-17.783-3.47H56.576l-21.7,15.146,10.916,3.266-2.98-6.271,4.662-3.266,2.686,14.248-15.317-7.961L23.2,119.673a23.254,23.254,0,0,0,42.115-13.635Z" transform="translate(-3.177 -66.846)" fill="#f2a900"/>
      <path id="Path_3136" data-name="Path 3136" d="M158.97,76.569H147.49l5.716-5.715a20.985,20.985,0,0,1,5.756,5.715" transform="translate(-102.641 -49.159)" fill="#f2a900"/>
      <path id="Path_3137" data-name="Path 3137" d="M14.183,101.312l-.4,1.959,9.788,2.016.4-1.959Z" transform="translate(-9.87 -70.292)" fill="#fff"/>
      <path id="Path_3138" data-name="Path 3138" d="M24.736,59.814l8.687,4.932-1.07,1.87-7.732-.163,5.92,3.364-.923,1.625L20.932,66.51l1.061-1.87,7.74.163-5.92-3.364Z" transform="translate(-14.832 -41.5)" fill="#fff"/>
      <path id="Path_3139" data-name="Path 3139" d="M48.24,34.074,53.351,30l1.176,1.47L50.975,34.3l1.331,1.666,2.874-2.286,1.184,1.47-2.882,2.294,2.547,3.192L54.47,41.88Z" transform="translate(-33.779 -20.814)" fill="#fff"/>
      <path id="Path_3140" data-name="Path 3140" d="M87.256,15.527a1.87,1.87,0,0,1,2.45,1.266l1.9,5.862A1.878,1.878,0,0,1,90.334,25.1l-3.152,1.1a1.878,1.878,0,0,1-2.449-1.274l-1.894-5.854A1.878,1.878,0,0,1,84.1,16.629Zm.694,2.254a.416.416,0,0,0-.588-.3l-2.2.719a.425.425,0,0,0-.3.6l1.633,5.119a.425.425,0,0,0,.6.3l2.229-.719a.424.424,0,0,0,.342-.41.421.421,0,0,0-.04-.186Z" transform="translate(-57.707 -10.693)" fill="#fff"/>
      <path id="Path_3141" data-name="Path 3141" d="M127.9,21.892l-1.339-3.813-1.633-.114-.261,3.7-2-.155.71-9.961,5.079.359a1.877,1.877,0,0,1,1.821,2.107l-.163,2.343a1.854,1.854,0,0,1-1.494,1.78l1.4,3.895Zm.392-7.626a.416.416,0,0,0-.441-.539l-2.58-.188-.155,2.564,2.588.188a.433.433,0,0,0,.506-.441Z" transform="translate(-85.417 -8.011)" fill="#fff"/>
      <path id="Path_3142" data-name="Path 3142" d="M162.849,32.211l-1.658-.914,3.209-5.838-4.336,3.4-1.265-.694.547-5.479-3.209,5.838-1.658-.914,4.818-8.753,1.919,1.053-.555,6.377L165.74,22.4l1.919,1.053Z" transform="translate(-107.49 -13.081)" fill="#fff"/>
      <path id="Path_3143" data-name="Path 3143" d="M200.231,55.123l-1.5,1.143-2.743-3.609L194.344,53.9l2.229,2.931-1.5,1.135-2.229-2.923-1.813,1.38,2.751,3.609-1.5,1.143-3.96-5.2,7.961-6.05Z" transform="translate(-130.968 -34.637)" fill="#fff"/>
      <path id="Path_3144" data-name="Path 3144" d="M216.1,90.339a1.878,1.878,0,0,1-1.355,2.449l-5.813,1.633a1.886,1.886,0,0,1-2.449-1.355l-1.413-5,9.6-2.735Zm-7.928,1.739a.42.42,0,0,0,.071.176.425.425,0,0,0,.509.151l5.07-1.445a.432.432,0,0,0,.357-.4.437.437,0,0,0-.03-.189l-.743-2.588-5.977,1.7Z" transform="translate(-142.589 -59.206)" fill="#fff"/>
      <path id="Path_3145" data-name="Path 3145" d="M28.871,152.168l-3.478.441,3.021-1.862-.269-.833-3.535.245,3.078-1.666-.359-1.135-4.474,2.776.327,1.021,3.2-.212-2.727,1.69.318.98,5.25-.359Z" transform="translate(-16.166 -102.24)"/>
      <path id="Path_3146" data-name="Path 3146" d="M34.4,169.886l1.094,1.984.923-.506L34.793,168.4l-4.474,2.458,1.625,2.964.923-.506-1.094-1.992.906-.49.882,1.608.923-.506-.882-1.608Z" transform="translate(-21.345 -116.839)"/>
      <path id="Path_3147" data-name="Path 3147" d="M51.768,190.213l.768-.71-2.49-2.686L50,186.775l-.759.71.89.955-2.948,2.727-.041.041.759.808,2.98-2.76Z" transform="translate(-33.021 -129.587)"/>
      <path id="Path_3148" data-name="Path 3148" d="M60.054,199.215l1.78,1.413.653-.833-2.654-2.09-3.168,4,2.654,2.1.653-.833-1.78-1.4.637-.8,1.445,1.135.653-.825-1.445-1.143Z" transform="translate(-39.625 -137.171)"/>
      <path id="Path_3149" data-name="Path 3149" d="M75.481,208.147l-1.282-.719a1,1,0,0,0-1.421.408l-.408.735a1.127,1.127,0,0,0,.4,1.429l.988.874c.114.1.131.155.082.253l-.261.457a.2.2,0,0,1-.106.1.2.2,0,0,1-.139,0l-.947-.523a.18.18,0,0,1-.09-.106.147.147,0,0,1,0-.139l.245-.441-.923-.523-.335.6a.988.988,0,0,0,.4,1.412l1.355.759a1.1,1.1,0,0,0,.539.147.876.876,0,0,0,.253,0,1.013,1.013,0,0,0,.621-.514l.441-.817a1.135,1.135,0,0,0-.392-1.429l-1-.874c-.114-.106-.131-.155-.082-.253l.237-.408a.148.148,0,0,1,.037-.061.147.147,0,0,1,.061-.037.171.171,0,0,1,.147,0l.865.49a.163.163,0,0,1,.073.245l-.22.384.947.531.31-.555a1,1,0,0,0-.4-1.429" transform="translate(-49.663 -143.815)"/>
      <path id="Path_3150" data-name="Path 3150" d="M89.265,214.038l1.225.449-1.4,3.821,1.045.384,1.4-3.821,1.225.449.359-.98-3.494-1.274Z" transform="translate(-62.124 -147.828)"/>
      <path id="Path_3151" data-name="Path 3151" d="M111.892,224.888l-1.053-.147a.318.318,0,0,0-.359.269l-.147,1.013a.3.3,0,0,0,0,.124.3.3,0,0,0,.053.112.311.311,0,0,0,.212.131l1.012.147h.049a.31.31,0,0,0,.31-.269l.155-1.021a.319.319,0,0,0-.269-.359" transform="translate(-76.857 -155.927)"/>
      <path id="Path_3152" data-name="Path 3152" d="M128.726,222.279l-1.029-1.992-1.217.065,1.764,3.242.1,1.772,1.111-.066-.1-1.772,1.339-3.34.033-.082-1.216.074Z" transform="translate(-88.063 -152.714)"/>
      <path id="Path_3153" data-name="Path 3153" d="M146.478,218.389a1,1,0,0,0-1.249-.817l-1.633.367a1,1,0,0,0-.817,1.241l.678,3a1.039,1.039,0,0,0,.441.669,1,1,0,0,0,.539.147h.261l1.633-.367a1,1,0,0,0,.817-1.241Zm-.588,3.266-1.127.31a.187.187,0,0,1-.139,0,.2.2,0,0,1-.073-.122l-.6-2.678c0-.122,0-.2.139-.22l1.143-.253h.139a.219.219,0,0,1,.073.122l.588,2.629a.144.144,0,0,1,.015.072.146.146,0,0,1-.146.14" transform="translate(-99.349 -150.93)"/>
      <path id="Path_3154" data-name="Path 3154" d="M160.645,211.676v-.049l-1.029.416,1.47,3.617a.147.147,0,0,1-.031.2.149.149,0,0,1-.067.029l-1.013.416a.187.187,0,0,1-.147,0,.2.2,0,0,1-.1-.074l-1.453-3.56v-.049l-1.021.416,1.543,3.8a1.044,1.044,0,0,0,.555.58.924.924,0,0,0,.367.074,1.006,1.006,0,0,0,.433-.09l1.478-.6a1,1,0,0,0,.547-1.388Z" transform="translate(-109.416 -146.83)"/>
      <path id="Path_3155" data-name="Path 3155" d="M181.453,199.8l-.62-.841-2.939,2.188-.049.032.62.841,1.045-.784,2.4,3.217.032.049.89-.661-2.425-3.266Z" transform="translate(-123.701 -138.042)"/>
      <path id="Path_3156" data-name="Path 3156" d="M193.951,190.954l-.817-.817a1,1,0,0,0-1.478,0l-1.813,1.87,3.658,3.56.776-.817-1.323-1.258.5-.514,1.854.71.816-.816-1.96-.735a.988.988,0,0,0-.245-1.151Zm-.931.955-.833.857-.817-.817.866-.89a.166.166,0,0,1,.058-.048.163.163,0,0,1,.2.048l.572.555a.166.166,0,0,1,.044.056.165.165,0,0,1,0,.14.17.17,0,0,1-.044.057" transform="translate(-132.026 -131.692)"/>
      <path id="Path_3157" data-name="Path 3157" d="M205.479,178.783l-3.315-2.3h-.049l-.637.915,3.209,2.221a.2.2,0,0,1,.081.115.193.193,0,0,1,0,.139l-.686.825a.152.152,0,0,1-.045.056.155.155,0,0,1-.065.03.159.159,0,0,1-.072,0,.153.153,0,0,1-.063-.035l-3.16-2.2-.678.882,3.364,2.335a1.1,1.1,0,0,0,.612.2h.163a1.052,1.052,0,0,0,.67-.449l.906-1.323a1.071,1.071,0,0,0,.188-.817,1.086,1.086,0,0,0-.449-.67" transform="translate(-139.073 -122.445)"/>
      <path id="Path_3158" data-name="Path 3158" d="M214.373,165.437l-.817-.392a1.135,1.135,0,0,0-1.4.49l-.817,1.045c-.1.122-.155.147-.253.1l-.425-.2a.148.148,0,0,1-.061-.037.146.146,0,0,1-.037-.061.171.171,0,0,1,0-.139l.425-.906a.187.187,0,0,1,.1-.1.194.194,0,0,1,.147,0l.4.188.5-.98-.58-.278a1.021,1.021,0,0,0-.817-.057,1.038,1.038,0,0,0-.588.547l-.629,1.331a1.019,1.019,0,0,0-.057.817,1.037,1.037,0,0,0,.547.588l.767.359a1.135,1.135,0,0,0,1.4-.49l.817-1.045c.1-.122.147-.139.245-.09l.474.22a.162.162,0,0,1,.065.038.168.168,0,0,1,.041.062.166.166,0,0,1,.009.074.161.161,0,0,1-.025.07l-.465.972a.165.165,0,0,1-.1.106.165.165,0,0,1-.074.009.161.161,0,0,1-.07-.025l-.449-.212-.465.972.629.3a1.182,1.182,0,0,0,.482.114,1,1,0,0,0,.906-.612l.67-1.4a1,1,0,0,0-.5-1.388" transform="translate(-145.599 -113.818)"/>
      <path id="Path_3159" data-name="Path 3159" d="M216.154,150.342l.367-1.249-1-.294-1.029,3.519-.008.049,1,.294.367-1.249,3.846,1.127.057.016.31-1.07Z" transform="translate(-149.119 -103.239)"/>
    </g>
  </g>
</svg>
