<svg id="Group_75852" data-name="Group 75852" xmlns="http://www.w3.org/2000/svg" xmlns:xlink="http://www.w3.org/1999/xlink" width="29.619" height="29.55" viewBox="0 0 29.619 29.55">
  <defs>
    <linearGradient id="linear-gradient" x1="0.915" y1="0.052" x2="0.087" y2="0.906" gradientUnits="objectBoundingBox">
      <stop offset="0" stop-color="#494ac4"/>
      <stop offset="0.374" stop-color="#ba3678"/>
      <stop offset="1" stop-color="#f5c15d"/>
    </linearGradient>
  </defs>
  <path id="Subtraction_1" data-name="Subtraction 1" d="M14.783,29.55c-3.475,0-7.462-.011-7.845-.027a10.463,10.463,0,0,1-2.151-.284,6.272,6.272,0,0,1-4.043-3.3,7.385,7.385,0,0,1-.706-2.855C.008,22.742,0,21.032,0,14.769c0-.73,0-1.4,0-2V12.69c0-1.084,0-1.978,0-2.723A27.292,27.292,0,0,1,.132,5.636l0-.031A6.363,6.363,0,0,1,1.852,2.011,5.92,5.92,0,0,1,3.553.767,7.356,7.356,0,0,1,6.472.036C6.813.007,8.45,0,14.814,0h4.821a27.6,27.6,0,0,1,4.331.13L24,.135A6.44,6.44,0,0,1,27.61,1.843a5.864,5.864,0,0,1,1.268,1.733A7.2,7.2,0,0,1,29.591,6.4c.02.26.029,4.387.029,8.361,0,3.873-.007,8.1-.029,8.368a7.287,7.287,0,0,1-.7,2.8,6.206,6.206,0,0,1-4.043,3.3,10.18,10.18,0,0,1-2.228.291C22.219,29.547,17.537,29.55,14.783,29.55Zm.023-25.685-.6,0c-2.406,0-2.824.014-3.9.063a8.088,8.088,0,0,0-2.654.508,5.585,5.585,0,0,0-3.2,3.19,8.023,8.023,0,0,0-.509,2.649c-.053,1.182-.065,1.572-.065,4.5s.012,3.316.065,4.5a8.075,8.075,0,0,0,.509,2.649,5.591,5.591,0,0,0,3.2,3.192,8.091,8.091,0,0,0,2.654.507c1.18.054,1.571.066,4.508.066s3.329-.013,4.508-.066a8.094,8.094,0,0,0,2.655-.507,5.6,5.6,0,0,0,3.2-3.192,8.16,8.16,0,0,0,.508-2.649c.051-1.14.066-1.484.066-4.5s-.015-3.36-.066-4.5a8.146,8.146,0,0,0-.508-2.648,5.591,5.591,0,0,0-3.2-3.191,8.116,8.116,0,0,0-2.656-.508C18.151,3.877,17.764,3.865,14.806,3.865Zm0,19.851c-2.915,0-3.262-.011-4.418-.063a6.1,6.1,0,0,1-2.031-.377,3.62,3.62,0,0,1-2.075-2.071,6.011,6.011,0,0,1-.377-2.025c-.051-1.135-.062-1.477-.062-4.409s.011-3.273.062-4.408a6.029,6.029,0,0,1,.377-2.026A3.366,3.366,0,0,1,7.1,7.082a3.4,3.4,0,0,1,1.257-.817A6.08,6.08,0,0,1,10.39,5.89c1.006-.046,1.387-.059,3.437-.062l.982,0c2.941,0,3.284.011,4.418.063a6.076,6.076,0,0,1,2.03.375A3.615,3.615,0,0,1,23.331,8.34a6.03,6.03,0,0,1,.377,2.026c.052,1.154.063,1.5.063,4.407s-.011,3.253-.063,4.408a6.012,6.012,0,0,1-.377,2.025,3.617,3.617,0,0,1-2.074,2.07,6.02,6.02,0,0,1-2.03.377C18.07,23.7,17.723,23.716,14.808,23.716Zm0-14.543a5.6,5.6,0,1,0,5.615,5.6A5.616,5.616,0,0,0,14.807,9.173Zm5.837-1.53,0,0a1.309,1.309,0,1,0,1.316,1.307A1.309,1.309,0,0,0,20.641,7.644ZM14.808,18.413a3.637,3.637,0,1,1,3.645-3.637A3.645,3.645,0,0,1,14.808,18.413Z" transform="translate(0 0)" fill="url(#linear-gradient)"/>
</svg>
