<svg id="Group_50" data-name="Group 50" xmlns="http://www.w3.org/2000/svg" width="159.569" height="47.279" viewBox="0 0 159.569 47.279">
  <path id="Path_1021" data-name="Path 1021" d="M321.366,340.887H172.921a5.719,5.719,0,0,1-5.688-5.636V299.117a5.61,5.61,0,0,1,5.688-5.508H321.366a5.4,5.4,0,0,1,5.435,5.508v36.134a5.57,5.57,0,0,1-5.513,5.636Z" transform="translate(-167.233 -293.608)" fill="#a6a6a6"/>
  <path id="Path_1022" data-name="Path 1022" d="M326.47,335.73a4.528,4.528,0,0,1-4.536,4.528H173.52a4.534,4.534,0,0,1-4.541-4.528V299.62a4.539,4.539,0,0,1,4.541-4.533H321.933a4.533,4.533,0,0,1,4.536,4.533v36.109Z" transform="translate(-167.814 -294.099)"/>
  <g id="Group_46" data-name="Group 46" transform="translate(15.479 7.066)">
    <g id="Group_45" data-name="Group 45" transform="translate(0 0)">
      <path id="Path_1023" data-name="Path 1023" d="M211.262,324.684a6.969,6.969,0,0,1,3.324-5.848,7.134,7.134,0,0,0-5.621-3.038c-2.365-.249-4.654,1.415-5.862,1.415s-3.083-1.391-5.083-1.35a7.48,7.48,0,0,0-6.3,3.841c-2.724,4.716-.691,11.647,1.916,15.458,1.306,1.867,2.826,3.951,4.82,3.878,1.953-.081,2.683-1.247,5.041-1.247s3.02,1.247,5.058,1.2c2.1-.033,3.417-1.875,4.677-3.76a15.47,15.47,0,0,0,2.139-4.357A6.733,6.733,0,0,1,211.262,324.684Z" transform="translate(-190.427 -308.373)" fill="#fff"/>
      <path id="Path_1024" data-name="Path 1024" d="M213.589,309.6a6.861,6.861,0,0,0,1.569-4.917,6.981,6.981,0,0,0-4.511,2.337,6.531,6.531,0,0,0-1.611,4.736A5.775,5.775,0,0,0,213.589,309.6Z" transform="translate(-196.6 -304.684)" fill="#fff"/>
    </g>
  </g>
  <g id="Group_47" data-name="Group 47" transform="translate(48.507 20.787)">
    <path id="Path_1025" data-name="Path 1025" d="M257.295,342.266h-2.729l-1.5-4.7h-5.2l-1.424,4.7h-2.66l5.153-16h3.178Zm-4.677-6.67-1.353-4.177q-.213-.64-.806-3.015h-.048q-.236,1.022-.76,3.015l-1.33,4.177Z" transform="translate(-243.788 -326.025)" fill="#fff"/>
    <path id="Path_1026" data-name="Path 1026" d="M278.34,338.463a6.557,6.557,0,0,1-1.591,4.654,4.654,4.654,0,0,1-3.537,1.519A3.536,3.536,0,0,1,269.936,343h-.048v6.077h-2.563V336.637q0-1.85-.095-3.8h2.254l.143,1.828h.048a4.561,4.561,0,0,1,7.3-.452,6.362,6.362,0,0,1,1.366,4.248Zm-2.611.093a4.753,4.753,0,0,0-.76-2.776,2.625,2.625,0,0,0-2.231-1.14,2.659,2.659,0,0,0-1.72.63,2.917,2.917,0,0,0-1.009,1.65,3.352,3.352,0,0,0-.118.781v1.923a3.08,3.08,0,0,0,.771,2.124,2.56,2.56,0,0,0,2.006.866,2.623,2.623,0,0,0,2.254-1.115,4.917,4.917,0,0,0,.806-2.942Z" transform="translate(-251.589 -328.132)" fill="#fff"/>
    <path id="Path_1027" data-name="Path 1027" d="M298.225,338.463a6.553,6.553,0,0,1-1.592,4.654,4.654,4.654,0,0,1-3.536,1.519A3.536,3.536,0,0,1,289.822,343h-.047v6.077h-2.563V336.637q0-1.85-.095-3.8h2.254l.143,1.828h.048a4.563,4.563,0,0,1,7.3-.452A6.369,6.369,0,0,1,298.225,338.463Zm-2.611.093a4.749,4.749,0,0,0-.761-2.776,2.621,2.621,0,0,0-2.231-1.14,2.659,2.659,0,0,0-1.722.63,2.922,2.922,0,0,0-1.007,1.65,3.381,3.381,0,0,0-.118.781v1.923a3.085,3.085,0,0,0,.77,2.124,2.56,2.56,0,0,0,2.008.866,2.625,2.625,0,0,0,2.254-1.115,4.922,4.922,0,0,0,.808-2.942Z" transform="translate(-258.205 -328.132)" fill="#fff"/>
    <path id="Path_1028" data-name="Path 1028" d="M321.055,337.664a4.263,4.263,0,0,1-1.421,3.324,6.3,6.3,0,0,1-4.358,1.4,7.646,7.646,0,0,1-4.147-1l.593-2.138a7.019,7.019,0,0,0,3.7,1.022,3.5,3.5,0,0,0,2.257-.653,2.134,2.134,0,0,0,.806-1.749,2.229,2.229,0,0,0-.665-1.641A6.2,6.2,0,0,0,315.617,335q-4.2-1.566-4.2-4.588a4.064,4.064,0,0,1,1.473-3.233,5.818,5.818,0,0,1,3.916-1.26,7.765,7.765,0,0,1,3.63.76l-.642,2.089a6.3,6.3,0,0,0-3.062-.736,3.1,3.1,0,0,0-2.111.665,1.9,1.9,0,0,0-.641,1.448,1.953,1.953,0,0,0,.735,1.566,8.311,8.311,0,0,0,2.327,1.235,7.906,7.906,0,0,1,3.038,1.946,4.082,4.082,0,0,1,.974,2.776Z" transform="translate(-266.191 -325.909)" fill="#fff"/>
    <path id="Path_1029" data-name="Path 1029" d="M335.2,333.447h-2.826v5.6q0,2.136,1.5,2.136a4.6,4.6,0,0,0,1.139-.118l.07,1.946a5.8,5.8,0,0,1-1.995.284,3.076,3.076,0,0,1-2.374-.924,4.547,4.547,0,0,1-.854-3.11v-5.818H328.17v-1.923h1.684V329.41l2.516-.76v2.872H335.2Z" transform="translate(-271.866 -326.818)" fill="#fff"/>
    <path id="Path_1030" data-name="Path 1030" d="M352.172,338.514a6.331,6.331,0,0,1-1.519,4.367,5.426,5.426,0,0,1-4.227,1.757,5.153,5.153,0,0,1-4.046-1.685,6.137,6.137,0,0,1-1.508-4.249,6.265,6.265,0,0,1,1.554-4.391,5.38,5.38,0,0,1,4.189-1.709,5.269,5.269,0,0,1,4.082,1.685,6.079,6.079,0,0,1,1.474,4.225Zm-2.66.083a5.2,5.2,0,0,0-.688-2.738,2.533,2.533,0,0,0-2.3-1.381,2.57,2.57,0,0,0-2.35,1.381,5.3,5.3,0,0,0-.688,2.786,5.192,5.192,0,0,0,.688,2.736,2.618,2.618,0,0,0,4.627-.023,5.2,5.2,0,0,0,.711-2.761Z" transform="translate(-276.094 -328.135)" fill="#fff"/>
    <path id="Path_1031" data-name="Path 1031" d="M367.211,335.093a4.465,4.465,0,0,0-.808-.07,2.423,2.423,0,0,0-2.089,1.021,3.835,3.835,0,0,0-.641,2.277v6.054h-2.561l.023-7.9q0-1.995-.1-3.632h2.232l.095,2.207h.072a3.934,3.934,0,0,1,1.281-1.828,3.1,3.1,0,0,1,1.852-.617,4.041,4.041,0,0,1,.642.047Z" transform="translate(-282.801 -328.132)" fill="#fff"/>
    <path id="Path_1032" data-name="Path 1032" d="M382.36,338.05a6.023,6.023,0,0,1-.095,1.164h-7.691a3.349,3.349,0,0,0,1.115,2.613,3.809,3.809,0,0,0,2.515.806,8.521,8.521,0,0,0,3.112-.545l.4,1.78a9.625,9.625,0,0,1-3.866.713A5.6,5.6,0,0,1,373.635,343a5.829,5.829,0,0,1-1.531-4.237,6.61,6.61,0,0,1,1.424-4.345,4.913,4.913,0,0,1,4.034-1.85,4.3,4.3,0,0,1,3.777,1.85A6.237,6.237,0,0,1,382.36,338.05Zm-2.443-.665a3.49,3.49,0,0,0-.5-1.97,2.241,2.241,0,0,0-2.043-1.069,2.433,2.433,0,0,0-2.041,1.046,3.823,3.823,0,0,0-.758,1.995Z" transform="translate(-286.487 -328.121)" fill="#fff"/>
  </g>
  <g id="Group_49" data-name="Group 49" transform="translate(50.028 7.656)">
    <g id="Group_48" data-name="Group 48" transform="translate(0 0)">
      <path id="Path_1033" data-name="Path 1033" d="M252.529,309.623a3.947,3.947,0,0,1-1.272,3.2,5.06,5.06,0,0,1-3.346,1,15.647,15.647,0,0,1-1.843-.093v-7.731a13.54,13.54,0,0,1,2.169-.166,4.679,4.679,0,0,1,3.113.9,3.627,3.627,0,0,1,1.178,2.9Zm-1.33.035a2.561,2.561,0,0,0-2.857-2.846,5.376,5.376,0,0,0-1.014.081v5.877a6.621,6.621,0,0,0,.851.035,2.992,2.992,0,0,0,2.234-.8,3.22,3.22,0,0,0,.786-2.344Z" transform="translate(-246.068 -305.481)" fill="#fff"/>
      <path id="Path_1034" data-name="Path 1034" d="M263.542,311.926a3.109,3.109,0,0,1-.746,2.146,2.659,2.659,0,0,1-2.076.863,2.535,2.535,0,0,1-1.995-.831,3.017,3.017,0,0,1-.74-2.088,3.079,3.079,0,0,1,.763-2.161,2.644,2.644,0,0,1,2.058-.839,2.59,2.59,0,0,1,2.006.831A2.992,2.992,0,0,1,263.542,311.926Zm-1.307.042a2.558,2.558,0,0,0-.332-1.345,1.245,1.245,0,0,0-1.13-.678,1.263,1.263,0,0,0-1.164.678,2.608,2.608,0,0,0-.332,1.368,2.563,2.563,0,0,0,.332,1.345,1.288,1.288,0,0,0,2.274-.012A2.55,2.55,0,0,0,262.235,311.967Z" transform="translate(-250.037 -306.545)" fill="#fff"/>
      <path id="Path_1035" data-name="Path 1035" d="M276.367,309.192,274.6,314.86h-1.154l-.735-2.46a18.282,18.282,0,0,1-.455-1.828h-.023a13.28,13.28,0,0,1-.455,1.828l-.781,2.46h-1.164l-1.662-5.668h1.295l.642,2.694q.233.957.386,1.82h.022q.141-.712.467-1.807l.8-2.706h1.026l.77,2.648q.281.967.454,1.865h.035a17.787,17.787,0,0,1,.386-1.865l.688-2.648Z" transform="translate(-253.413 -306.601)" fill="#fff"/>
      <path id="Path_1036" data-name="Path 1036" d="M287.773,314.8h-1.26v-3.246q0-1.5-1.142-1.5a1.135,1.135,0,0,0-.911.412,1.459,1.459,0,0,0-.349.972V314.8h-1.26v-4.046q0-.746-.047-1.622h1.107l.058.886h.035a1.817,1.817,0,0,1,.653-.683,2.124,2.124,0,0,1,1.142-.318,1.807,1.807,0,0,1,1.318.514,2.494,2.494,0,0,1,.653,1.877Z" transform="translate(-258.291 -306.54)" fill="#fff"/>
      <path id="Path_1037" data-name="Path 1037" d="M294.829,313.559h-1.258V305.3h1.258Z" transform="translate(-261.873 -305.3)" fill="#fff"/>
      <path id="Path_1038" data-name="Path 1038" d="M303.81,311.926a3.1,3.1,0,0,1-.748,2.146,2.66,2.66,0,0,1-2.074.863,2.532,2.532,0,0,1-1.995-.831,3.015,3.015,0,0,1-.74-2.088,3.082,3.082,0,0,1,.763-2.161,2.644,2.644,0,0,1,2.058-.839,2.6,2.6,0,0,1,2.008.831,2.992,2.992,0,0,1,.728,2.079Zm-1.308.042a2.558,2.558,0,0,0-.332-1.345,1.243,1.243,0,0,0-1.13-.678,1.26,1.26,0,0,0-1.155.678,2.6,2.6,0,0,0-.332,1.368,2.556,2.556,0,0,0,.332,1.345,1.27,1.27,0,0,0,1.144.678,1.257,1.257,0,0,0,1.129-.69,2.538,2.538,0,0,0,.344-1.356Z" transform="translate(-263.436 -306.545)" fill="#fff"/>
      <path id="Path_1039" data-name="Path 1039" d="M313.4,314.807h-1.132l-.095-.653h-.035a1.941,1.941,0,0,1-1.662.781,1.707,1.707,0,0,1-1.293-.514,1.607,1.607,0,0,1-.444-1.155,1.763,1.763,0,0,1,.869-1.586,4.526,4.526,0,0,1,2.443-.537v-.1q0-1.119-1.177-1.12a2.628,2.628,0,0,0-1.476.42l-.256-.831a3.622,3.622,0,0,1,1.945-.49q2.222,0,2.224,2.344v2.088A8.836,8.836,0,0,0,313.4,314.807Zm-1.308-1.948v-.878Q310,311.946,310,313.123a.856.856,0,0,0,.243.665.881.881,0,0,0,.615.221,1.265,1.265,0,0,0,.77-.263,1.069,1.069,0,0,0,.437-.665,1.026,1.026,0,0,0,.02-.226Z" transform="translate(-266.924 -306.543)" fill="#fff"/>
      <path id="Path_1040" data-name="Path 1040" d="M323.745,313.559h-1.117l-.058-.909h-.035a1.883,1.883,0,0,1-1.82,1.039,2.131,2.131,0,0,1-1.7-.8,3.134,3.134,0,0,1-.677-2.088,3.281,3.281,0,0,1,.735-2.227,2.257,2.257,0,0,1,1.749-.793,1.7,1.7,0,0,1,1.6.77h.023V305.3H323.7v6.74C323.7,312.584,323.714,313.094,323.745,313.559Zm-1.306-2.39v-.946a1.832,1.832,0,0,0-.035-.4,1.434,1.434,0,0,0-.455-.763,1.235,1.235,0,0,0-.843-.309,1.293,1.293,0,0,0-1.109.56,2.4,2.4,0,0,0-.4,1.434,2.241,2.241,0,0,0,.387,1.365,1.3,1.3,0,0,0,1.1.56,1.216,1.216,0,0,0,1-.467,1.557,1.557,0,0,0,.356-1.039Z" transform="translate(-270.115 -305.3)" fill="#fff"/>
      <path id="Path_1041" data-name="Path 1041" d="M339.827,311.926a3.108,3.108,0,0,1-.746,2.146,2.659,2.659,0,0,1-2.076.863,2.54,2.54,0,0,1-1.995-.831,3.016,3.016,0,0,1-.74-2.088,3.083,3.083,0,0,1,.763-2.161,2.648,2.648,0,0,1,2.059-.839,2.59,2.59,0,0,1,2,.831,2.992,2.992,0,0,1,.73,2.079Zm-1.306.042a2.565,2.565,0,0,0-.332-1.345,1.247,1.247,0,0,0-1.132-.678,1.267,1.267,0,0,0-1.155.678,2.605,2.605,0,0,0-.332,1.368,2.556,2.556,0,0,0,.332,1.345,1.288,1.288,0,0,0,2.276-.012A2.561,2.561,0,0,0,338.52,311.967Z" transform="translate(-275.421 -306.545)" fill="#fff"/>
      <path id="Path_1042" data-name="Path 1042" d="M350.268,314.8h-1.258v-3.246q0-1.5-1.144-1.5a1.133,1.133,0,0,0-.909.412,1.459,1.459,0,0,0-.349.972V314.8h-1.262v-4.046q0-.746-.045-1.622h1.105l.058.886h.035a1.829,1.829,0,0,1,.653-.683,2.129,2.129,0,0,1,1.144-.317,1.807,1.807,0,0,1,1.316.514,2.493,2.493,0,0,1,.653,1.877Z" transform="translate(-279.087 -306.54)" fill="#fff"/>
      <path id="Path_1043" data-name="Path 1043" d="M363.729,309.443h-1.388V312.2c0,.7.246,1.049.735,1.049a2.229,2.229,0,0,0,.562-.058l.033.956a2.841,2.841,0,0,1-.979.14,1.5,1.5,0,0,1-1.164-.455,2.218,2.218,0,0,1-.42-1.528v-2.856h-.831V308.5h.831v-1.051l1.235-.372v1.411h1.388Z" transform="translate(-284.072 -305.897)" fill="#fff"/>
      <path id="Path_1044" data-name="Path 1044" d="M372.993,313.559h-1.262v-3.223q0-1.524-1.14-1.524a1.2,1.2,0,0,0-1.2.884,1.584,1.584,0,0,0-.058.454v3.409h-1.258V305.3h1.258v3.416h.023a1.907,1.907,0,0,1,1.7-.931,1.757,1.757,0,0,1,1.3.514,2.576,2.576,0,0,1,.642,1.9Z" transform="translate(-286.663 -305.3)" fill="#fff"/>
      <path id="Path_1045" data-name="Path 1045" d="M383.248,311.7a2.986,2.986,0,0,1-.048.572h-3.778a1.652,1.652,0,0,0,.547,1.283,1.88,1.88,0,0,0,1.238.4,4.176,4.176,0,0,0,1.529-.268l.2.874a4.75,4.75,0,0,1-1.9.351,2.741,2.741,0,0,1-2.068-.776,2.854,2.854,0,0,1-.751-2.081,3.249,3.249,0,0,1,.7-2.134,2.409,2.409,0,0,1,1.981-.909,2.108,2.108,0,0,1,1.853.909A3.047,3.047,0,0,1,383.248,311.7Zm-1.2-.332a1.692,1.692,0,0,0-.244-.967,1.1,1.1,0,0,0-1-.525,1.2,1.2,0,0,0-1,.514,1.9,1.9,0,0,0-.374.979Z" transform="translate(-290.038 -306.537)" fill="#fff"/>
    </g>
  </g>
</svg>
