<svg id="Group_44" data-name="Group 44" xmlns="http://www.w3.org/2000/svg" xmlns:xlink="http://www.w3.org/1999/xlink" width="159.568" height="47.28" viewBox="0 0 159.568 47.28">
  <defs>
    <linearGradient id="linear-gradient" x1="0.915" y1="6.834" x2="-0.383" y2="6.165" gradientUnits="objectBoundingBox">
      <stop offset="0" stop-color="#00a0ff"/>
      <stop offset="0.007" stop-color="#00a1ff"/>
      <stop offset="0.26" stop-color="#00beff"/>
      <stop offset="0.512" stop-color="#00d2ff"/>
      <stop offset="0.76" stop-color="#00dfff"/>
      <stop offset="1" stop-color="#00e3ff"/>
    </linearGradient>
    <linearGradient id="linear-gradient-2" x1="1.076" y1="17.745" x2="-1.305" y2="17.745" gradientUnits="objectBoundingBox">
      <stop offset="0" stop-color="#ffe000"/>
      <stop offset="0.409" stop-color="#ffbd00"/>
      <stop offset="0.775" stop-color="orange"/>
      <stop offset="1" stop-color="#ff9c00"/>
    </linearGradient>
    <linearGradient id="linear-gradient-3" x1="0.862" y1="11.292" x2="-0.501" y2="9.523" gradientUnits="objectBoundingBox">
      <stop offset="0" stop-color="#ff3a44"/>
      <stop offset="1" stop-color="#c31162"/>
    </linearGradient>
    <linearGradient id="linear-gradient-4" x1="-0.188" y1="14.012" x2="0.421" y2="13.222" gradientUnits="objectBoundingBox">
      <stop offset="0" stop-color="#32a071"/>
      <stop offset="0.068" stop-color="#2da771"/>
      <stop offset="0.476" stop-color="#15cf74"/>
      <stop offset="0.801" stop-color="#06e775"/>
      <stop offset="1" stop-color="#00f076"/>
    </linearGradient>
  </defs>
  <rect id="Rectangle_42" data-name="Rectangle 42" width="159.568" height="47.279" rx="7" transform="translate(0 0)"/>
  <g id="Group_40" data-name="Group 40" transform="translate(0 0)">
    <g id="Group_39" data-name="Group 39" transform="translate(0 0)">
      <path id="Path_1004" data-name="Path 1004" d="M-518.06-5.674a4.97,4.97,0,0,1,4.965,4.965V34.75a4.97,4.97,0,0,1-4.965,4.965H-665.808a4.97,4.97,0,0,1-4.965-4.965V-.71a4.97,4.97,0,0,1,4.965-4.965H-518.06m0-.946H-665.808a5.927,5.927,0,0,0-5.909,5.909V34.75a5.927,5.927,0,0,0,5.909,5.909H-518.06a5.927,5.927,0,0,0,5.911-5.909V-.71a5.927,5.927,0,0,0-5.911-5.909Z" transform="translate(671.717 6.621)" fill="#a6a6a6"/>
    </g>
  </g>
  <g id="Group_41" data-name="Group 41" transform="translate(48.828 8.105)">
    <path id="Path_1005" data-name="Path 1005" d="M-548.261,16.686a3.206,3.206,0,0,1-.883,2.374,3.445,3.445,0,0,1-2.611,1.052,3.579,3.579,0,0,1-2.616-1.067,3.577,3.577,0,0,1-1.077-2.646,3.575,3.575,0,0,1,1.077-2.646,3.577,3.577,0,0,1,2.616-1.067,3.669,3.669,0,0,1,1.459.3,2.927,2.927,0,0,1,1.112.795l-.625.625a2.4,2.4,0,0,0-1.946-.844,2.7,2.7,0,0,0-1.941.79,2.718,2.718,0,0,0-.82,2.049,2.721,2.721,0,0,0,.819,2.051,2.7,2.7,0,0,0,1.942.79,2.7,2.7,0,0,0,1.986-.793,2.238,2.238,0,0,0,.6-1.441h-2.581v-.854h3.446a3.022,3.022,0,0,1,.047.537Z" transform="translate(555.45 -12.676)" fill="#fff" stroke="#fff" stroke-width="0.2"/>
    <path id="Path_1006" data-name="Path 1006" d="M-531.131,13.935h-3.238v2.254h2.919v.854h-2.919V19.3h3.238v.874h-4.155V13.061h4.155Z" transform="translate(543.779 -12.894)" fill="#fff" stroke="#fff" stroke-width="0.2"/>
    <path id="Path_1007" data-name="Path 1007" d="M-520.274,20.17h-.914V13.935h-1.986v-.874h4.885v.874h-1.986Z" transform="translate(536.775 -12.894)" fill="#fff" stroke="#fff" stroke-width="0.2"/>
    <path id="Path_1008" data-name="Path 1008" d="M-503.193,20.17V13.061h.913V20.17Z" transform="translate(525.214 -12.894)" fill="#fff" stroke="#fff" stroke-width="0.2"/>
    <path id="Path_1009" data-name="Path 1009" d="M-495.392,20.17h-.914V13.935h-1.986v-.874h4.885v.874h-1.986Z" transform="translate(522.38 -12.894)" fill="#fff" stroke="#fff" stroke-width="0.2"/>
    <path id="Path_1010" data-name="Path 1010" d="M-473.348,19.03a3.491,3.491,0,0,1-2.606,1.077,3.491,3.491,0,0,1-2.606-1.077,3.634,3.634,0,0,1-1.047-2.636,3.634,3.634,0,0,1,1.047-2.636,3.49,3.49,0,0,1,2.606-1.077,3.491,3.491,0,0,1,2.6,1.082,3.635,3.635,0,0,1,1.052,2.631,3.639,3.639,0,0,1-1.049,2.636Zm-4.538-.6a2.61,2.61,0,0,0,1.931.8,2.608,2.608,0,0,0,1.931-.8,2.782,2.782,0,0,0,.789-2.041,2.782,2.782,0,0,0-.789-2.041,2.61,2.61,0,0,0-1.931-.8,2.611,2.611,0,0,0-1.931.8,2.786,2.786,0,0,0-.789,2.041,2.785,2.785,0,0,0,.789,2.048Z" transform="translate(511.569 -12.679)" fill="#fff" stroke="#fff" stroke-width="0.2"/>
    <path id="Path_1011" data-name="Path 1011" d="M-459.227,20.17V13.061h1.112l3.456,5.53h.04l-.04-1.37V13.066h.914v7.109h-.954l-3.615-5.8h-.04l.04,1.37v4.428Z" transform="translate(499.777 -12.894)" fill="#fff" stroke="#fff" stroke-width="0.2"/>
  </g>
  <path id="Path_1012" data-name="Path 1012" d="M-524.219,46.887a4.967,4.967,0,0,0-3.6,1.447,4.966,4.966,0,0,0-1.461,3.592,4.986,4.986,0,0,0,1.467,3.586,4.987,4.987,0,0,0,3.591,1.454,4.987,4.987,0,0,0,3.591-1.454,4.986,4.986,0,0,0,1.467-3.586,4.967,4.967,0,0,0-1.46-3.592,4.967,4.967,0,0,0-3.6-1.447Zm0,8.093a2.915,2.915,0,0,1-2.063-.926,2.916,2.916,0,0,1-.781-2.123,2.9,2.9,0,0,1,.775-2.129,2.9,2.9,0,0,1,2.069-.924,2.9,2.9,0,0,1,2.067.925,2.9,2.9,0,0,1,.774,2.128,2.915,2.915,0,0,1-.779,2.121A2.916,2.916,0,0,1-524.219,54.98Zm-11.035-8.093a4.967,4.967,0,0,0-3.6,1.447,4.966,4.966,0,0,0-1.46,3.592,4.986,4.986,0,0,0,1.466,3.586,4.987,4.987,0,0,0,3.591,1.454,4.987,4.987,0,0,0,3.595-1.449,4.987,4.987,0,0,0,1.471-3.586,4.966,4.966,0,0,0-1.462-3.6,4.966,4.966,0,0,0-3.6-1.446Zm0,8.093a2.916,2.916,0,0,1-2.065-.928,2.916,2.916,0,0,1-.779-2.126,2.9,2.9,0,0,1,.775-2.129,2.9,2.9,0,0,1,2.069-.924,2.9,2.9,0,0,1,2.069.924,2.9,2.9,0,0,1,.775,2.129,2.916,2.916,0,0,1-.779,2.126,2.916,2.916,0,0,1-2.065.928Zm-13.131-6.547V50.57h5.116a4.465,4.465,0,0,1-1.163,2.691,5.239,5.239,0,0,1-3.951,1.566,5.612,5.612,0,0,1-3.994-1.67,5.613,5.613,0,0,1-1.618-4.018,5.612,5.612,0,0,1,1.617-4.017,5.613,5.613,0,0,1,3.995-1.671,5.452,5.452,0,0,1,3.856,1.528l1.508-1.508a7.46,7.46,0,0,0-5.364-2.161,7.937,7.937,0,0,0-7.942,7.827,7.935,7.935,0,0,0,7.942,7.825,7.148,7.148,0,0,0,5.46-2.2,7.064,7.064,0,0,0,1.852-5,6.994,6.994,0,0,0-.115-1.33Zm53.688,1.662a4.684,4.684,0,0,0-4.322-3.206,4.789,4.789,0,0,0-3.448,1.509,4.789,4.789,0,0,0-1.293,3.534,4.932,4.932,0,0,0,1.43,3.582,4.932,4.932,0,0,0,3.572,1.457,5.013,5.013,0,0,0,4.2-2.232l-1.72-1.145a2.877,2.877,0,0,1-2.482,1.393,2.563,2.563,0,0,1-2.443-1.528l6.739-2.787Zm-6.871,1.68a2.764,2.764,0,0,1,.7-2.024,2.764,2.764,0,0,1,1.935-.917,1.951,1.951,0,0,1,1.87,1.069Zm-5.485,4.887h2.214V41.846h-2.214Zm-3.627-8.643h-.076a3.491,3.491,0,0,0-2.659-1.125,5.011,5.011,0,0,0-4.83,5.058,4.987,4.987,0,0,0,4.83,5.02,3.436,3.436,0,0,0,2.659-1.145h.076v.725c0,1.928-1.031,2.959-2.691,2.959a2.789,2.789,0,0,1-2.538-1.8l-1.928.8a4.8,4.8,0,0,0,4.466,2.977c2.6,0,4.792-1.528,4.792-5.249V47.191h-2.1Zm-2.538,6.968a2.892,2.892,0,0,1-2.041-.928,2.893,2.893,0,0,1-.765-2.107,2.915,2.915,0,0,1,.758-2.125,2.916,2.916,0,0,1,2.048-.948,2.839,2.839,0,0,1,2,.965,2.84,2.84,0,0,1,.693,2.108,2.816,2.816,0,0,1-.7,2.083,2.816,2.816,0,0,1-1.984.945Zm28.888-13.131h-5.3V56.669h2.211V51.047h3.087a4.692,4.692,0,0,0,3.393-1.282,4.692,4.692,0,0,0,1.465-3.319,4.694,4.694,0,0,0-1.464-3.315,4.694,4.694,0,0,0-3.388-1.285Zm.056,7.147h-3.145V43.908h3.145a2.566,2.566,0,0,1,2.591,2.538,2.581,2.581,0,0,1-2.585,2.54Zm13.663-2.128a4.155,4.155,0,0,0-3.944,2.267l1.963.819a2.094,2.094,0,0,1,2.02-1.087,2.129,2.129,0,0,1,2.327,1.9v.153a4.89,4.89,0,0,0-2.305-.572c-2.114,0-4.268,1.164-4.268,3.334a3.422,3.422,0,0,0,1.15,2.407,3.422,3.422,0,0,0,2.529.851,3.118,3.118,0,0,0,2.826-1.448h.076v1.144h2.134V50.956a4.064,4.064,0,0,0-1.327-3.061,4.064,4.064,0,0,0-3.171-1.036Zm-.266,8.118c-.725,0-1.735-.362-1.735-1.258,0-1.144,1.258-1.582,2.344-1.582a3.936,3.936,0,0,1,2.02.5,2.679,2.679,0,0,1-2.621,2.325Zm12.539-7.794-2.535,6.423h-.076l-2.63-6.423h-2.382l3.944,8.976-2.249,4.987h2.305L-455.88,47.2Zm-19.914,9.474h2.211V41.847h-2.211Z" transform="translate(604.559 -21.228)" fill="#fff"/>
  <g id="Group_43" data-name="Group 43" transform="translate(11.812 8.401)">
    <path id="Path_1013" data-name="Path 1013" d="M-643.128,14.456a2.372,2.372,0,0,0-.549,1.662V42.326a2.372,2.372,0,0,0,.549,1.662l.088.085,14.68-14.68v-.346L-643.048,14.37Z" transform="translate(643.681 -13.981)" fill="url(#linear-gradient)"/>
    <path id="Path_1014" data-name="Path 1014" d="M-602.442,47.726l-4.893-4.9v-.346l4.893-4.893.11.063,5.8,3.294a1.8,1.8,0,0,1,1.243,1.71,1.8,1.8,0,0,1-1.243,1.71l-5.8,3.294Z" transform="translate(622.655 -27.417)" fill="url(#linear-gradient-2)"/>
    <path id="Path_1015" data-name="Path 1015" d="M-622.606,54.621l-5-5-14.767,14.767a1.927,1.927,0,0,0,2.462.073l17.31-9.835" transform="translate(642.93 -34.374)" fill="url(#linear-gradient-3)"/>
    <path id="Path_1016" data-name="Path 1016" d="M-622.6,23.691l-17.317-9.828a1.928,1.928,0,0,0-2.462.073L-627.614,28.7Z" transform="translate(642.927 -13.454)" fill="url(#linear-gradient-4)"/>
    <g id="Group_42" data-name="Group 42" transform="translate(0 20.135)">
      <path id="Path_1017" data-name="Path 1017" d="M-622.713,61.23-639.919,71a1.975,1.975,0,0,1-2.374.013h0l-.088.088h0l.088.085h0a1.973,1.973,0,0,0,2.374-.013l17.31-9.835Z" transform="translate(642.927 -61.23)" opacity="0.2" style="mix-blend-mode: normal;isolation: isolate"/>
      <path id="Path_1018" data-name="Path 1018" d="M-643.128,81.962a2.372,2.372,0,0,1-.549-1.662v.166a2.372,2.372,0,0,0,.549,1.662l.088-.088Z" transform="translate(643.681 -72.26)" opacity="0.12" style="mix-blend-mode: normal;isolation: isolate"/>
    </g>
    <path id="Path_1019" data-name="Path 1019" d="M-589.815,51.155l-5.907,3.358.11.11,5.8-3.294a2.077,2.077,0,0,0,1.242-1.71h0A2.207,2.207,0,0,1-589.815,51.155Z" transform="translate(615.935 -34.375)" opacity="0.12" style="mix-blend-mode: normal;isolation: isolate"/>
    <path id="Path_1020" data-name="Path 1020" d="M-640.668,14.028l23.1,13.131a2.206,2.206,0,0,1,1.242,1.538h0a2.078,2.078,0,0,0-1.242-1.71l-23.1-13.131c-1.662-.941-3.01-.166-3.01,1.737v.166C-643.678,13.862-642.323,13.087-640.668,14.028Z" transform="translate(643.682 -13.453)" fill="#fff" opacity="0.25" style="mix-blend-mode: normal;isolation: isolate"/>
  </g>
</svg>
