<svg id="Group_48616" data-name="Group 48616" xmlns="http://www.w3.org/2000/svg" width="25.963" height="25" viewBox="0 0 25.963 25">
  <path id="Path_53433" data-name="Path 53433" d="M18.229,14.488a6.8,6.8,0,1,1,6.8-6.8A6.807,6.807,0,0,1,18.229,14.488Zm0-11.6a4.8,4.8,0,1,0,4.8,4.8A4.806,4.806,0,0,0,18.229,2.886Z" transform="translate(-5.248 -0.89)" fill="#034292"/>
  <path id="Path_53434" data-name="Path 53434" d="M23.54,34.872H2.423A2.422,2.422,0,0,1,0,32.454v-.292A11.988,11.988,0,0,1,9.487,20.478,1,1,0,1,1,9.9,22.436,9.977,9.977,0,0,0,2,32.167v.292a.422.422,0,0,0,.422.422H23.545a.422.422,0,0,0,.422-.422v-.3a9.982,9.982,0,0,0-7.9-9.731,1,1,0,0,1,.411-1.958,12,12,0,0,1,9.482,11.689v.292A2.422,2.422,0,0,1,23.54,34.872Z" transform="translate(0 -9.872)" fill="#034292"/>
</svg>
