<svg id="Group_52222" data-name="Group 52222" xmlns="http://www.w3.org/2000/svg" width="30" height="30" viewBox="0 0 30 30">
  <path id="icons8-linkedin-circled" d="M18,3A15,15,0,1,0,33,18,15,15,0,0,0,18,3ZM12.37,9.754a1.629,1.629,0,0,1,1.754,1.636,1.667,1.667,0,0,1-1.87,1.636A1.629,1.629,0,0,1,10.5,11.39,1.667,1.667,0,0,1,12.37,9.754Zm1.88,14.5H10.5v-10h3.75Zm12.5,0H23.22V18.785c0-1.511-.941-1.86-1.294-1.86s-1.53.232-1.53,1.86V24.25H16.75v-10H20.4v1.395c.47-.814,1.411-1.395,3.176-1.395s3.176,1.395,3.176,4.535Z" transform="translate(-3 -3)" fill="#0288d1"/>
</svg>
