<svg xmlns="http://www.w3.org/2000/svg" width="24.937" height="21" viewBox="0 0 24.937 21">
  <g id="Group_76214" data-name="Group 76214" transform="translate(-200 -172.5)">
    <path id="Path_1" data-name="Path 1" d="M1.446,8.724H23.491a1.474,1.474,0,0,0,0-2.948H1.446a1.474,1.474,0,0,0,0,2.948ZM13.491,14.8H1.446a1.474,1.474,0,0,0,0,2.948H13.491a1.474,1.474,0,0,0,0-2.948Zm10,9.026H1.446a1.474,1.474,0,0,0,0,2.948H23.491a1.474,1.474,0,0,0,0-2.948Z" transform="translate(200 166.724)" fill="#034292"/>
  </g>
</svg>
