<svg id="Group_75851" data-name="Group 75851" xmlns="http://www.w3.org/2000/svg" width="32.174" height="25.739" viewBox="0 0 32.174 25.739">
  <path id="icons8-youtube" d="M33.5,7.517a4.031,4.031,0,0,0-2.844-2.844C28.148,4,18.087,4,18.087,4S8.026,4,5.517,4.672A4.031,4.031,0,0,0,2.672,7.517C2,10.026,2,16.87,2,16.87s0,6.843.672,9.353a4.031,4.031,0,0,0,2.844,2.844c2.51.672,12.57.672,12.57.672s10.061,0,12.57-.672A4.029,4.029,0,0,0,33.5,26.223c.672-2.51.672-9.353.672-9.353S34.174,10.026,33.5,7.517ZM14.87,21.049V12.69a.8.8,0,0,1,1.207-.7l7.239,4.179a.8.8,0,0,1,0,1.393l-7.239,4.179A.8.8,0,0,1,14.87,21.049Z" transform="translate(-2 -4)" fill="#ff3d00"/>
</svg>
