<svg id="noun_shopping_2339141" xmlns="http://www.w3.org/2000/svg" width="29.636" height="26.415" viewBox="0 0 29.636 26.415">
  <g id="Group_46690" data-name="Group 46690">
    <path id="Path_70991" data-name="Path 70991" d="M4.967,961.362a.966.966,0,1,0,0,1.933H8.822c1.6,3.962,3.175,7.93,4.762,11.9l-1.46,3.513a.966.966,0,0,0,.9,1.339H29.127a.967.967,0,1,0,0-1.933H14.47l.836-1.993,15.513-1.238a.994.994,0,0,0,.866-.745l1.933-8.375a1.011,1.011,0,0,0-.946-1.178H11.419l-1.047-2.617a.991.991,0,0,0-.9-.6Zm7.228,5.154h5.98v2.9H13.352Zm7.912,0h3.866v2.9H20.107Zm5.8,0h5.547l-.664,2.9H25.905Zm-11.778,4.832h4.047v2.607l-2.909.231Zm5.98,0h3.866v2.144l-3.866.312Zm5.8,0h4.429l-.383,1.671-4.047.322Zm-9.342,9.986a3.221,3.221,0,1,0,3.221,3.221A3.236,3.236,0,0,0,16.564,981.334Zm9.02,0a3.221,3.221,0,1,0,3.221,3.221A3.236,3.236,0,0,0,25.583,981.334Zm-9.02,1.933a1.289,1.289,0,1,1-1.289,1.288A1.274,1.274,0,0,1,16.564,983.267Zm9.02,0a1.289,1.289,0,1,1-1.289,1.288A1.274,1.274,0,0,1,25.583,983.267Z" transform="translate(-4 -961.362)" fill="#034292"/>
  </g>
</svg>
