<svg xmlns="http://www.w3.org/2000/svg" width="30" height="30" viewBox="0 0 30 30">
  <g id="twitter_logo" data-name="twitter logo" transform="translate(-1006.969 -37)">
    <circle id="Ellipse_1860" data-name="Ellipse 1860" cx="15" cy="15" r="15" transform="translate(1006.969 37)" fill="#1ca1f1"/>
    <path id="Path_81614" data-name="Path 81614" d="M39.157,29.582a7.631,7.631,0,0,1-2.218.607,3.9,3.9,0,0,0,1.7-2.134,7.8,7.8,0,0,1-2.454.94,3.866,3.866,0,0,0-6.685,2.64,4,4,0,0,0,.1.88,10.968,10.968,0,0,1-7.964-4.04,3.857,3.857,0,0,0-.525,1.943h0a3.859,3.859,0,0,0,1.719,3.208,3.9,3.9,0,0,1-1.751-.484v.05a3.864,3.864,0,0,0,3.1,3.8,3.94,3.94,0,0,1-1.02.138,4.029,4.029,0,0,1-.729-.071,3.873,3.873,0,0,0,3.61,2.684,7.792,7.792,0,0,1-5.729,1.6,11,11,0,0,0,16.927-9.263c0-.17,0-.335-.011-.5a7.751,7.751,0,0,0,1.927-2Z" transform="translate(992.658 17.225)" fill="#fff" fill-rule="evenodd"/>
  </g>
</svg>
