<svg xmlns="http://www.w3.org/2000/svg" xmlns:xlink="http://www.w3.org/1999/xlink" width="43.237" height="43.35" viewBox="0 0 43.237 43.35">
  <defs>
    <linearGradient id="linear-gradient" x1="0.787" y1="0.115" x2="0.14" y2="0.885" gradientUnits="objectBoundingBox">
      <stop offset="0" stop-color="#7ace70"/>
      <stop offset="1" stop-color="#5bb351"/>
    </linearGradient>
    <filter id="Path_81610" x="0" y="0" width="43.237" height="43.35" filterUnits="userSpaceOnUse">
      <feOffset input="SourceAlpha"/>
      <feGaussianBlur stdDeviation="3" result="blur"/>
      <feFlood flood-opacity="0.161"/>
      <feComposite operator="in" in2="blur"/>
      <feComposite in="SourceGraphic"/>
    </filter>
  </defs>
  <g id="whatsapp_icon" data-name="whatsapp icon" transform="translate(9.001 8.998)">
    <path id="Path_81608" data-name="Path 81608" d="M6.97,21.331l.382.226a10.431,10.431,0,0,0,5.316,1.456h0a10.443,10.443,0,1,0-8.848-4.893l.249.4L3.017,22.367ZM0,25.352l1.783-6.509a12.567,12.567,0,1,1,10.889,6.292h-.005a12.558,12.558,0,0,1-6-1.529Z" transform="translate(-0.001)" fill="#fff"/>
    <path id="Path_81609" data-name="Path 81609" d="M289.733-828.429a12.1,12.1,0,0,0,1.619,6.063l-1.721,6.284,6.431-1.686a12.129,12.129,0,0,0,5.8,1.476h.005a12.146,12.146,0,0,0,12.13-12.127,12.051,12.051,0,0,0-3.55-8.579,12.054,12.054,0,0,0-8.581-3.557,12.146,12.146,0,0,0-12.131,12.126m12.131,12.136h0" transform="translate(-289.195 840.995)" fill="url(#linear-gradient)"/>
    <g transform="matrix(1, 0, 0, 1, -9, -9)" filter="url(#Path_81610)">
      <path id="Path_81610-2" data-name="Path 81610" d="M285.177-832.574a12.54,12.54,0,0,0,1.677,6.28l-1.783,6.509,6.661-1.747a12.559,12.559,0,0,0,6,1.529h.005a12.583,12.583,0,0,0,12.566-12.562,12.486,12.486,0,0,0-3.677-8.887,12.487,12.487,0,0,0-8.889-3.684,12.581,12.581,0,0,0-12.566,12.561m3.967,5.952-.249-.4a10.413,10.413,0,0,1-1.6-5.556,10.458,10.458,0,0,1,10.448-10.44,10.376,10.376,0,0,1,7.384,3.062,10.377,10.377,0,0,1,3.056,7.387,10.458,10.458,0,0,1-10.444,10.441h0a10.433,10.433,0,0,1-5.316-1.456l-.382-.226-3.953,1.036Zm8.6,6.62h0" transform="translate(-276.07 854.13)" fill="#fff"/>
    </g>
    <path id="Path_81611" data-name="Path 81611" d="M68.841,71.089c-.235-.523-.483-.533-.706-.543-.183-.008-.393-.007-.6-.007a1.153,1.153,0,0,0-.837.393,3.52,3.52,0,0,0-1.1,2.619A6.109,6.109,0,0,0,66.879,76.8a12.889,12.889,0,0,0,5.363,4.739c2.652,1.046,3.192.838,3.768.785a3.17,3.17,0,0,0,2.119-1.492,2.623,2.623,0,0,0,.183-1.493c-.078-.131-.288-.209-.6-.366s-1.858-.917-2.145-1.022-.5-.157-.707.157-.811,1.021-.994,1.23-.366.236-.68.079a8.59,8.59,0,0,1-2.525-1.558,9.458,9.458,0,0,1-1.747-2.174c-.183-.314-.02-.484.138-.641.141-.141.314-.367.471-.55a2.148,2.148,0,0,0,.314-.524.577.577,0,0,0-.026-.55c-.079-.157-.689-1.71-.968-2.331" transform="translate(-59.311 -63.778)" fill="#fff" fill-rule="evenodd"/>
  </g>
</svg>
