<svg id="fl1" xmlns="http://www.w3.org/2000/svg" width="186.813" height="92.175" viewBox="0 0 186.813 92.175">
  <path id="Path_3123" data-name="Path 3123" d="M305.725,135.967l.053-.2ZM288.1,149.586c-6.082,0-2.123-13.436-1.062-16.45,1.127-3.225,4.208-9.9,6.869-11.876,3.054-2.281,6.423-2.268,10.08-1.73a33.505,33.505,0,0,1,5.1,1.232l-1.271,6.371-2.084,4.181c-.708,1.35-2.752,4.64-3.6,5.793l-4.037,5.2-3.762,4.09C293,147.712,289.957,149.586,288.1,149.586Zm17.63-13.619c0,.6-.852,4.653-1.035,5.6-.367,1.848-.681,3.657-1.075,5.545-.747,3.709.262,8.166,4.627,8.179,4.247.013,8.075-2.648,10.762-4.929a28.539,28.539,0,0,0,2.137-2.044,11.266,11.266,0,0,0,1.481-1.888,26.831,26.831,0,0,0,.458-2.9l-2.189,2.281c-.013.013-.026.039-.039.052-.1.092,0,.013-.144.144a38.11,38.11,0,0,1-3.71,3.185c-1.258.865-3.88,2.726-5.479,1.783-1.678-.983-.642-4.889-.354-6.3.2-1.035.459-2.124.682-3.238,1.075-5.44,2.333-10.827,3.408-16.188l2.045-9.8c-1.049,0-2.163-.17-2.8-.184a59.783,59.783,0,0,0-12.44.249,26.3,26.3,0,0,0-6.239,1.77,23.69,23.69,0,0,0-4.509,2.6l-1.665,1.324a32.768,32.768,0,0,0-5.125,4.942,31.778,31.778,0,0,0-6.711,13.449c-.931,3.985-1.14,9.648,1.547,13.252,3.041,4.063,7.72,2.517,11.377.328a26.716,26.716,0,0,0,2.871-2.084c.223-.171.328-.3.551-.472a38.914,38.914,0,0,0,3.107-2.949l1.914-2.111a61.7,61.7,0,0,0,6.148-8.966C305.489,136.269,305.463,136.151,305.725,135.967Z" transform="translate(-171.724 -75.33)" fill="#2e3092" fill-rule="evenodd"/>
  <path id="Path_3124" data-name="Path 3124" d="M55.321,55.471l-6.4-.052V51.644l7.131-.039a15.588,15.588,0,0,1,.38-2.189c1.1-5.518.983-8.953,4.575-13.422A10.534,10.534,0,0,1,72.23,32.86a10.418,10.418,0,0,1,1.861.76l1.743.865,5.532-5.479c-.525-.039-1.429-.223-1.914-.275-6.423-.341-12.151.131-17.827,3.565A28.616,28.616,0,0,0,49.108,50.386c-.341,1.56-.144,1.206-.878,1.18l-8.8-.013c-.485.013-.459.066-.459.551l.013,3.369h9.136c0,.537-.6,3.592-.747,4.391-.236,1.442-.5,2.871-.773,4.352-1.088,5.676-2.005,11.876-3.12,17.5-.288,1.468-.524,2.9-.773,4.365s-.524,2.923-.8,4.417c-1.389,7.773-2.281,18.613-11.155,19.714-3.6.459-5.951-.485-8.94-1.18l-1.1,1.324c-.38.459-.786.852-1.18,1.337l-1.992,2.294c-.249.328-.341.328-.38.76,4.627,0,9.293.577,13.724-1.035.367-.144.695-.262,1.075-.42a20.935,20.935,0,0,0,5.728-3.5l1.534-1.455c.459-.59,1.324-1.468,2.137-2.53.459-.6.826-1.206,1.245-1.835s.734-1.206,1.114-1.875c3.329-5.977,5.44-14.091,6.764-20.75.328-1.651.708-3.474,1-5.165.839-5.1,2.006-10.447,2.871-15.507Z" transform="translate(-17.124 -23.947)" fill="#2e3092" fill-rule="evenodd"/>
  <path id="Path_3125" data-name="Path 3125" d="M101.9,89.03H248.931l1.586-3.906-26.963-.039-1.311.066c-1.153-.144-59.523-.026-59.9-.026H106.279c-1.062,0-2.871.079-3.644.039L95.5,85.2v3.775Z" transform="translate(-63.705 -57.505)" fill="#f37032" fill-rule="evenodd"/>
  <path id="Path_3126" data-name="Path 3126" d="M405.06,111.3c1.193,0,2.49-.079,3.421.865,1.586,1.6.576,4.693.236,6.528-.249,1.337-.459,2.517-.734,3.841l-2.176,11.443c-.42,2.1-2.058,10.119-2.058,11.653,0,2.189.157,4.5,1.7,6.056a5.982,5.982,0,0,0,5.007,1.979c3.185,0,6.934-2.019,9.411-3.67l5.479-4.312a25.817,25.817,0,0,0,.039-3.225c-.433.118-.839.8-1.376,1.232a34.411,34.411,0,0,1-4.6,3.513c-1.324.8-4.312,2.254-5.636.616-1.219-1.508-.616-4.326-.262-6.043l7.865-38.865c-.459.21-1.258.407-1.822.59-2.989,1-6.318,1.94-9.294,2.936l-9.28,2.949c-.983.275-1.573.354-1.626.892-.249,2.779-.315,2.5.643,2.215.3-.079.694-.17,1.035-.275A29.49,29.49,0,0,1,405.06,111.3Z" transform="translate(-244.279 -68.107)" fill="#f37032" fill-rule="evenodd"/>
  <path id="Path_3127" data-name="Path 3127" d="M195.276,125.321a9.092,9.092,0,0,0,2.831,7.065l5.3,5.99a14.343,14.343,0,0,1,2.477,3.211c1.835,3.657.944,7.616-3.447,8.6a9.84,9.84,0,0,1-2.766.131,16.208,16.208,0,0,1-4.8-1.258,29.975,29.975,0,0,1-4.063-2.1c-.328.5-2.5,2.6-2.962,3.106L186.035,152a32.947,32.947,0,0,0,4.6,1.481c5.977,1.258,11.771.917,16.8-2.556a13.461,13.461,0,0,0,3.447-3.552,10.145,10.145,0,0,0,1.127-2.333,9.483,9.483,0,0,0-1.612-8.992l-6.135-7.5a21.943,21.943,0,0,1-2.333-3.08,7.123,7.123,0,0,1-.97-4.352c.315-2.962,3.7-4.653,6.252-4.653a8.652,8.652,0,0,1,3.264.38c1.678.6,3.461,1.94,3.461,4a9.717,9.717,0,0,1-.2,2.058h2.333c.21-.433.826-3.238.957-3.893l.917-4.037a24.355,24.355,0,0,0-3.487-1.009,18.938,18.938,0,0,0-11.351,1.284,14.706,14.706,0,0,0-4.076,2.635l-.852.839C196.561,120.576,195.276,122.529,195.276,125.321Z" transform="translate(-117.533 -74.476)" fill="#2e3092" fill-rule="evenodd"/>
  <path id="Path_3128" data-name="Path 3128" d="M114.192,125.648a9.86,9.86,0,0,0,1.9,5.754l4.483,5.033a3.8,3.8,0,0,0,.446.472l2.294,2.569a9.061,9.061,0,0,1,2.451,5.3,5.068,5.068,0,0,1-1.822,4.352c-3.487,2.621-8.546.865-11.967-.839-.393-.184-.682-.367-1.088-.59a5.478,5.478,0,0,0-1.088-.59l-3.6,3.683c-.472.629-1.035.944-1.153,1.35a7.018,7.018,0,0,1,1.049.367c.367.144.76.262,1.114.367,6.03,2.031,14.025,1.94,19.124-1.835a13.116,13.116,0,0,0,3.356-3.342,9.66,9.66,0,0,0-.38-11.692l-7.825-9.529a4.2,4.2,0,0,1-.734-1.219,6.989,6.989,0,0,1-.865-3.434c0-6.79,13.068-7.236,13.068-.459,0,.681-.183,1.022-.2,1.586,2.713,0,2.334.21,2.556-.8.092-.38.157-.695.223-1,.223-.9,1.232-5.649,1.416-6.043a17.653,17.653,0,0,0-7.55-1.4c-4.181,0-9.018,1.888-11.168,4.037-.328.315-.576.459-.891.786a6.038,6.038,0,0,0-.38.472,9.954,9.954,0,0,0-2.582,5.06A12.449,12.449,0,0,0,114.192,125.648Z" transform="translate(-69.376 -74.528)" fill="#2e3092" fill-rule="evenodd"/>
  <path id="Path_3129" data-name="Path 3129" d="M415.266,41.329a7.411,7.411,0,0,1-3.107,1.914,15.236,15.236,0,0,1-3.054.682c-.458.039-.839.1-1.206.1a1.345,1.345,0,0,0,.092.682l1.311-.066a12.123,12.123,0,0,0,5.453-1.874c1.481-1.062.354-.708,2.044-.944.538-.079.813-.066,1.324-.17,7.747-1.573,10.8-11.666,10.853-18.81l.17-2.818a27.743,27.743,0,0,0,.026-2.962h-.2c-.092,1.232-2.4,4.706-3.172,5.781C421.007,28.221,413.562,33.491,415.266,41.329Z" transform="translate(-249.451 -17.066)" fill="#0b8e3c" fill-rule="evenodd"/>
  <path id="Path_3130" data-name="Path 3130" d="M408.391,61.781a3.441,3.441,0,1,1-3.434,3.447A3.443,3.443,0,0,1,408.391,61.781Z" transform="translate(-247.702 -43.653)" fill="#7f4006" fill-rule="evenodd"/>
  <path id="Path_3131" data-name="Path 3131" d="M191.165,235.18l-1.888,3.749H17.066v-.695c8.966.616,14.864-.59,18.692-3.041Z" transform="translate(-17.066 -146.755)" fill="#0b8e3c" fill-rule="evenodd"/>
</svg>
