<svg xmlns="http://www.w3.org/2000/svg" xmlns:xlink="http://www.w3.org/1999/xlink" width="23.627" height="30.386" viewBox="0 0 23.627 30.386">
  <defs>
    <linearGradient id="linear-gradient" x1="0.889" y1="0.961" x2="0" gradientUnits="objectBoundingBox">
      <stop offset="0" stop-color="#f54a00"/>
      <stop offset="1" stop-color="#ffab87"/>
    </linearGradient>
    <filter id="Path_3213" x="0" y="0" width="23.627" height="30.386" filterUnits="userSpaceOnUse">
      <feOffset dy="3" input="SourceAlpha"/>
      <feGaussianBlur stdDeviation="1" result="blur"/>
      <feFlood flood-color="#fc8b5a" flood-opacity="0.271"/>
      <feComposite operator="in" in2="blur"/>
      <feComposite in="SourceGraphic"/>
    </filter>
  </defs>
  <g id="location-pin" transform="translate(3)">
    <g id="Group_62527" data-name="Group 62527" transform="translate(0)">
      <g transform="matrix(1, 0, 0, 1, -3, 0)" filter="url(#Path_3213)">
        <path id="Path_3213-2" data-name="Path 3213" d="M66.062,0h0a8.8,8.8,0,0,0-8.813,8.813,9.583,9.583,0,0,0,1.3,4.657l5.744,9.941a2.013,2.013,0,0,0,1.771.974,2.054,2.054,0,0,0,1.771-.974l5.744-9.935a9.431,9.431,0,0,0,1.3-4.658A8.807,8.807,0,0,0,66.062,0Zm0,11.417A3.217,3.217,0,1,1,69.279,8.2,3.225,3.225,0,0,1,66.062,11.417Z" transform="translate(-54.25)" fill="url(#linear-gradient)"/>
      </g>
    </g>
  </g>
</svg>
